<?xml version="1.0" standalone="no"?>
<!DOCTYPE svg PUBLIC "-//W3C//DTD SVG 1.1//EN" "http://www.w3.org/Graphics/SVG/1.1/DTD/svg11.dtd" >
<svg xmlns="http://www.w3.org/2000/svg" xmlns:xlink="http://www.w3.org/1999/xlink" version="1.1">
<metadata></metadata>
<defs>
<font id="nothing_you_could_doregular" horiz-adv-x="860" >
<font-face units-per-em="2048" ascent="1638" descent="-410" />
<missing-glyph horiz-adv-x="1076" />
<glyph horiz-adv-x="0" />
<glyph unicode="&#xd;" horiz-adv-x="820" />
<glyph unicode=" "  horiz-adv-x="1076" />
<glyph unicode="&#x09;" horiz-adv-x="1076" />
<glyph unicode="&#xa0;" horiz-adv-x="1076" />
<glyph unicode="!" horiz-adv-x="532" d="M19 98q13 28 37 47t48 20t32 -29t1 -62t-24 -52t-41 -18t-50 42q-16 24 -3 52zM136 610q-4 12 4 60t24 117t40 153t52 168t58 162t59 136t56 88t49 20q2 -10 -7 -67t-27 -140t-43 -183t-52 -196t-57 -179t-58 -133t-54 -56t-44 50z" />
<glyph unicode="&#x22;" horiz-adv-x="568" d="M120 1107q0 43 2 71q0 34 14 25t31 -33t31 -52t14 -30q2 -26 2 -67v-81v-69t-2 -31l-24 -22q-6 2 -23 19t-21 25q-10 28 -15 70t-7 87t-2 88zM348 862v340q38 18 59 -2t29 -61t6 -97t-10 -107t-19 -90t-19 -49q-4 0 -13 9t-11 13q-4 8 -13 25t-9 19z" />
<glyph unicode="#" horiz-adv-x="1378" d="M36 340q-10 18 23 30t87 26t118 33t115 53t78 86t7 132q-30 2 -91 -10t-124 -17t-112 7t-57 66q50 22 104 36t108 26t109 23t107 29q10 18 29 53t41 70t44 61t36 25t18 -38t-8 -127q62 -10 100 14t60 63t34 83t22 75t21 39t35 -26q16 -26 17 -53t-4 -55t-11 -57t-2 -59 q50 -6 126 -5t145 2t115 -2t37 -14t-91 -33t-266 -62q-60 -12 -106 -55t-70 -92t-21 -92t39 -55q6 -2 45 4t92 14t112 15t104 5t69 -16t8 -46t-57 -46t-92 -18t-109 -4t-107 -4t-86 -17t-47 -45q-4 -22 -11 -74t-19 -109t-32 -108t-50 -71q-4 2 -14 10t-10 12q-6 38 2 81 t18 85t14 82t-10 70q-14 26 -39 25t-53 -3q-56 -8 -83 -31t-40 -55t-17 -69t-11 -72t-23 -65t-52 -48q-36 24 -42 57t0 69t15 74t5 70q-2 0 -23 -3t-50 -5t-63 -1t-65 6t-56 17t-35 34zM530 520q0 -34 2 -44q74 -12 114 7t60 58t29 92t21 113q-14 44 -36 50t-47 -13t-49 -53 t-45 -69t-34 -63t-13 -34q-2 -10 -2 -44z" />
<glyph unicode="$" horiz-adv-x="948" d="M34 384q0 28 24 44q8 0 30 4t48 8t48 7t30 5q16 4 42 12t28 12l112 316q8 24 -13 44t-54 41t-70 43t-62 49t-30 61t27 78q20 28 61 42t87 23t91 18t75 29q12 8 25 39t29 71t33 79t36 62t39 21t42 -46q8 -18 5 -41t-11 -47t-14 -48t-2 -44h202q6 0 14 -9t10 -13v-70 q-72 -4 -139 -13t-116 -36t-73 -79t-12 -142q150 -54 220 -104t84 -97t-18 -89t-89 -80t-128 -71t-135 -60t-109 -49t-51 -38l-90 -270q0 -4 -13 -17t-28 -23t-30 -9t-19 25q-8 44 1 87t20 82t19 71t-2 53t-44 28t-106 -3q-24 16 -24 44zM301 1000q11 -18 27 -28 q56 -38 87 -33t40 31t1 60t-29 54t-53 14t-68 -60q-16 -20 -5 -38zM440 496q44 -8 95 7t98 43t86 64t61 68q-2 34 -24 61t-56 41t-75 12t-78 -26t-66 -73t-41 -129v-68z" />
<glyph unicode="%" horiz-adv-x="656" d="M22 148q58 126 125 246t136 239t135 239t124 246q38 12 52 -1t16 -37t-6 -52t-16 -44q-106 -226 -233 -443t-241 -437q-22 -30 -38 -26t-30 26q-4 4 -13 21t-11 23zM22 148q58 126 125 246t136 239t135 239t124 246q38 12 52 -1t16 -37t-6 -52t-16 -44 q-106 -226 -233 -443t-241 -437q-22 -30 -38 -26t-30 26q-4 4 -13 21t-11 23zM132 972q-14 38 6 54t45 11t41 -28t-4 -61q-8 -2 -21 -4t-27 -1t-25 8t-15 21q-14 38 6 54t45 11t41 -28t-4 -61q-8 -2 -21 -4t-27 -1t-25 8t-15 21zM452 240q-12 38 8 54t45 12t41 -27t-4 -63 q-8 -2 -21 -4t-27 -1t-25 8t-17 21zM452 240q-12 38 8 54t45 12t41 -27t-4 -63q-8 -2 -21 -4t-27 -1t-25 8t-17 21z" />
<glyph unicode="&#x26;" horiz-adv-x="768" d="M37 416q-9 28 12 59t56 63t77 67t75 71t50 75t1 81q-48 -10 -103 4t-79 64q-16 30 18 67t82 77t93 84t55 86q30 138 49 204t30 80t16 -12t7 -74t4 -108t8 -110q30 -14 60 3t61 41t63 42t66 4q10 -46 -11 -75t-57 -50t-79 -36t-76 -35t-50 -48t1 -72q112 10 168 4t70 -25 t-5 -50t-55 -69t-81 -83t-84 -92t-63 -94t-18 -91q12 2 44 2h68h69t45 -2q58 -4 63 -16t-22 -29t-75 -35t-95 -34t-83 -28t-38 -14q-28 -42 -31 -112t-5 -143t-15 -135t-61 -86l-46 48q-18 18 -16 76t12 127t19 133t7 92q-100 24 -146 50t-55 54zM172 446q60 -10 95 6t17 86 q-24 8 -50 -10t-38 -36q-4 -4 -13 -22t-11 -24zM442 808q18 -6 38 4t30 20h-68v-24z" />
<glyph unicode="'" horiz-adv-x="422" d="M134 892q0 26 1 48t3 32q0 2 5 20t12 39t15 43t12 34q22 60 37 73t24 -4t12 -57t-1 -89t-13 -98t-24 -84t-35 -47t-44 12q-2 8 -3 30t-1 48z" />
<glyph unicode="(" horiz-adv-x="576" d="M59 510q5 134 37 273t77 265t99 230t105 166t93 73t62 -47q-66 -60 -134 -161t-125 -226t-96 -264t-49 -271t16 -250t100 -200q10 -12 41 -32t67 -45t70 -52t51 -54t9 -50t-56 -39q-4 -2 -12 -2t-12 2q-14 12 -47 43t-69 67t-67 69t-43 47q-70 86 -96 205t-21 253z" />
<glyph unicode=")" horiz-adv-x="496" d="M36 -151q0 7 4 11q166 152 239 352t73 417t-62 435t-166 406q-6 16 -2 37t26 31q112 -90 176 -225t92 -292t23 -325t-32 -322t-71 -282t-95 -207t-104 -97t-97 50q-4 4 -4 11z" />
<glyph unicode="*" horiz-adv-x="1118" d="M36 311q-12 15 0 51q44 8 99 11t101 16t74 42t18 89q-4 30 -30 57t-53 54t-45 56t-6 59q22 10 45 6t44 -16t38 -28t29 -30q8 18 21 48t28 59t32 51t32 24t27 -24t18 -90q4 2 13 10t11 12q4 6 14 22t20 35t20 35t14 22q44 14 56 -5t6 -57t-25 -88t-39 -98t-34 -86t-10 -52 q66 -4 130 0t129 11t130 12t131 1q12 -24 -22 -41t-90 -31t-122 -25t-120 -23t-85 -27t-13 -33l204 -226v-46h-70l-270 248q-4 -38 1 -74t11 -73t11 -73t-1 -74h-68l-68 136q-6 14 -23 -5t-37 -46t-40 -51t-33 -23t-16 38t13 133q6 36 -9 52t-42 22t-58 6t-55 6t-36 21z" />
<glyph unicode="+" horiz-adv-x="690" d="M22 384q4 4 22 12t24 10q12 2 44 9t68 15t69 14t45 8l46 316q2 12 12 19t22 7t22 -6t10 -20v-292q12 0 41 -3t62 -7t62 -8t41 -6q4 0 22 -9t22 -15q-22 -34 -57 -44t-73 -15t-71 -14t-49 -39q-20 -40 -16 -81t11 -81t8 -79t-23 -75q-4 2 -13 10t-11 12q-20 30 -32 69 t-18 81t-10 82t-8 74h-226z" />
<glyph unicode="," horiz-adv-x="362" d="M-24 -292q-10 28 9 65t48 74t59 73t42 60q18 36 26 72t10 72t3 73t7 77q8 56 27 41t35 -68t21 -123t-15 -122q-4 -6 -16 -36t-31 -69t-44 -82t-52 -76t-54 -50t-53 -5q-4 2 -12 11t-10 13z" />
<glyph unicode="-" horiz-adv-x="996" d="M58 564q-26 26 3 50t92 44t151 34t182 22t183 7t156 -13t100 -36t15 -62q-22 0 -73 -3t-109 -7t-110 -7t-72 -5q-50 -4 -122 -23t-147 -32t-143 -11t-106 42z" />
<glyph unicode="." horiz-adv-x="292" d="M53 107q13 43 45 66t70 18t58 -55q12 -30 -3 -63t-43 -54t-60 -24t-52 27q-28 42 -15 85z" />
<glyph unicode="/" horiz-adv-x="620" d="M46 22q-12 76 7 183t59 228t94 249t111 248t110 225t93 179q22 14 36 6t22 -25t10 -38t0 -33q-12 -26 -41 -90t-61 -136t-61 -136t-39 -90q-10 -20 -29 -69t-41 -103t-41 -102t-25 -66q-10 -28 -24 -85t-32 -122t-38 -126t-42 -97q-6 -6 -16 -13t-20 -10t-20 2t-12 21z " />
<glyph unicode="0" horiz-adv-x="972" d="M53 344q15 106 58 224t106 228t141 203t163 150t172 68t167 -43q60 -40 74 -120t-6 -183t-70 -218t-118 -225t-148 -204t-161 -154t-157 -77t-138 29q-60 46 -79 131t-4 191zM125 248q-9 -96 33 -158q30 -46 75 -40t98 47t110 110t112 152t105 173t88 171t62 146t28 99 q10 112 -22 149t-91 18t-136 -85t-153 -159t-145 -203t-112 -217t-52 -203z" />
<glyph unicode="1" horiz-adv-x="554" d="M20 104q4 52 22 108t40 104t32 68q6 16 25 63t45 110t54 133t54 133t45 110t25 63q4 12 11 39t17 56t22 56t28 40t36 7t44 -42q2 -2 -15 -51t-46 -130t-66 -184t-77 -210t-79 -210t-70 -184t-52 -131t-25 -52t-21 6t-23 16q-30 30 -26 82z" />
<glyph unicode="2" horiz-adv-x="1096" d="M45 68q5 24 23 46q76 90 152 173t146 169t133 179t113 201q26 56 21 84t-30 35t-63 -2t-79 -24t-79 -31t-61 -24t-27 -3t24 33q36 42 89 74t108 47t104 11t80 -31t34 -79t-33 -134q-42 -96 -107 -179t-133 -163t-132 -161t-102 -175q32 -10 99 8t151 48t175 62t174 50 t147 14t92 -46q4 -4 4 -23t-4 -23q-60 10 -144 -9t-179 -51t-194 -69t-189 -61t-166 -26t-124 34q-28 22 -23 46z" />
<glyph unicode="3" horiz-adv-x="1038" d="M37 83q-3 9 1 17t20 14q22 6 47 3t52 -10t53 -13t50 -4q42 4 121 40t168 89t174 117t137 126t56 113t-68 81q-36 6 -94 -7t-122 -32l-128 -38t-112 -24t-73 11t-13 66q26 30 71 78t92 103t89 113t64 112l-31 -8t-76 -19t-94 -19t-87 -8t-55 12t5 42q4 6 41 29t92 49 t118 51t118 35t91 0t38 -52t-39 -123t-143 -213v-68q160 12 250 -15t123 -80t16 -123t-74 -144t-146 -145t-200 -123t-236 -79t-253 -15q-4 2 -12 11t-10 13q-6 8 -12 18t-9 19z" />
<glyph unicode="4" horiz-adv-x="1084" d="M37 633q5 51 30 110t63 123t77 126t72 120t49 108q46 12 67 1t24 -36t-8 -59t-27 -68t-32 -64t-24 -46q-10 -16 -32 -58t-47 -88t-48 -88t-31 -58v-46q48 -6 102 3t107 24t104 33t93 30q98 28 157 84t98 131t67 165t64 186q46 14 58 -13t4 -77t-31 -115t-46 -125 t-40 -107t-15 -61q34 12 67 1t47 -45q-12 -28 -39 -38t-57 -18t-59 -19t-47 -39q-42 -66 -72 -138t-54 -148t-42 -153t-36 -149q-14 -4 -39 -1t-29 25q-14 68 8 137t50 137t49 135t5 133q-40 6 -92 -7t-107 -33t-111 -40t-108 -27t-95 5t-73 56q-26 40 -21 91z" />
<glyph unicode="5" horiz-adv-x="1084" d="M36 114q0 10 37 7t84 -11t91 -15t58 -5q114 12 217 66t179 137t117 188t29 219q-30 60 -84 75t-118 2t-132 -43t-126 -60t-99 -51t-53 -13q-32 22 -40 45t-3 49t18 53t25 57q2 6 17 41t35 80t43 87t41 62q36 36 113 52t165 24t173 14t139 24q48 16 68 -4t4 -52t-72 -64 t-158 -40q-18 0 -63 -3t-96 -7t-96 -7t-63 -3q-18 -14 -40 -38t-40 -52t-29 -58t-5 -56q46 -10 93 0t94 24t96 24t101 -2q102 -22 153 -76t59 -125t-22 -153t-88 -161t-138 -149t-174 -117t-196 -65t-202 8q-16 4 -35 11t-36 17t-29 26t-12 38z" />
<glyph unicode="6" horiz-adv-x="724" d="M35 284q-9 84 23 168q8 22 44 86t87 142t111 159t115 138t98 79t63 -18q4 -8 4 -34t-4 -32q-32 -30 -78 -73t-97 -96t-101 -112t-87 -120t-56 -120t-9 -111h22q164 86 269 113t163 13t74 -59t-1 -103t-62 -119t-108 -106t-138 -64t-153 7q-18 6 -41 14t-45 18t-40 24 t-30 36q-14 86 -23 170zM180 167q-4 -31 34 -53q44 -26 94 -18t98 36t89 68t64 79t24 69t-29 36q-20 4 -64 -8t-95 -34t-100 -52t-80 -61t-35 -62z" />
<glyph unicode="7" horiz-adv-x="960" d="M53 929q21 23 78 46t142 43t178 36t183 27t160 16t108 2t26 -15q-12 -28 -43 -94t-74 -155t-95 -192t-107 -202t-109 -187t-102 -146t-87 -78t-61 16q-2 4 -2 11t2 11q12 24 44 81t68 122t68 123t46 82t41 63t58 85t62 95t54 96t33 88t0 69q-92 -24 -170 -43t-154 -31 t-156 -17t-176 1q-36 24 -15 47z" />
<glyph unicode="8" horiz-adv-x="996" d="M31 164q5 42 25 83t44 69q16 18 55 60t82 88t81 88t54 58q18 46 2 88t-44 85t-54 87t-27 91t35 100t134 113q112 70 178 80t110 -20t78 -89t86 -127q6 -6 20 -12t27 -13t21 -18t2 -27q-50 -32 -105 -71t-109 -82t-104 -90t-90 -95q-18 -68 -5 -125t32 -106t33 -92t0 -86 t-69 -86t-173 -93q-56 -22 -124 -24t-126 24q-44 24 -59 62t-10 80zM124 90q120 -22 195 4t116 75t53 111t5 115t-29 83t-46 18q-20 -18 -66 -58t-94 -89t-87 -100t-47 -91v-68zM355 930q-7 -68 41 -162q2 -4 9 -14t14 -21t13 -21t8 -12q4 -2 12 -2t12 2q12 10 44 36t68 55 t69 55t45 36q10 8 28 25t18 21v180q0 22 -38 31t-92 3t-111 -30t-95 -69t-45 -113z" />
<glyph unicode="9" horiz-adv-x="780" d="M32 708q6 62 53 128t126 122t170 79t184 2t171 -111q4 -16 -26 -96t-79 -190t-109 -230t-117 -216t-103 -148t-66 -26q-12 70 3 117t45 111q12 22 40 80t61 123t61 123t40 80v22q-34 12 -67 4t-66 -24t-66 -35t-66 -30t-68 -10t-73 27q-54 36 -48 98zM124 700 q60 -16 129 1t134 52t121 82t92 93q-20 40 -57 47t-82 -7t-94 -43t-92 -63t-77 -66t-50 -50q-4 -4 -12 -22t-12 -24z" />
<glyph unicode=":" horiz-adv-x="250" d="M54 91q12 17 35 23t46 0t33 -24q18 -34 8 -57t-32 -30t-48 3t-40 40q-14 28 -2 45zM55 631q-1 23 10 40t33 21t48 -14t29 -44t-9 -45t-36 -24t-52 23q-22 20 -23 43z" />
<glyph unicode=";" horiz-adv-x="350" d="M-36 -318q0 8 4 10q56 72 94 129t59 117t27 130t0 166q10 6 21 1t22 -15t18 -20l7 -10q36 -48 38 -119t-17 -145t-55 -141t-75 -109t-77 -48t-62 42q-4 4 -4 12zM76 709q0 19 4 23h90v-90q-14 -8 -28 -6t-26 10t-21 19t-15 21q-4 4 -4 23z" />
<glyph unicode="&#x3c;" horiz-adv-x="928" d="M25 655q3 33 43 69q18 16 55 49t84 76t99 89t98 89t83 76t55 49q10 4 28 0t33 -13t20 -23t-11 -32l-430 -428q-22 -22 4 -58t68 -72t83 -64t49 -34q26 -18 93 -63t143 -95t143 -95t95 -61q20 -26 24 -51t-7 -41t-33 -18t-52 18q-162 108 -326 215t-308 239q-32 28 -65 57 t-52 59t-16 63z" />
<glyph unicode="=" d="M46 46q-12 18 15 33t76 27t109 22t114 16t93 10t45 4q16 0 58 1t89 1t89 -1t58 -1q10 -6 19 -18t3 -26q-74 -10 -171 -26t-193 -33t-180 -32t-134 -23q-36 -6 -52 3t-38 43zM158 496q12 24 58 44t108 32t133 17t134 -1t111 -23t66 -45q-8 -10 -54 -20t-111 -19t-140 -15 t-140 -5t-111 9t-54 26z" />
<glyph unicode="&#x3e;" horiz-adv-x="690" d="M56 1108q2 8 19 25t25 19q42 -32 109 -75t137 -92t134 -104t102 -114t41 -122t-49 -125q-16 -20 -46 -57t-67 -81t-76 -90t-74 -87t-61 -72t-36 -43q-4 -6 -17 -19l-27 -27l-27 -27t-19 -17q-6 4 -24 21t-22 25q-20 38 8 86t80 102t116 112t118 115t87 112t21 105 q-2 4 -38 33t-87 71t-111 91t-109 95t-80 84t-27 56z" />
<glyph unicode="?" horiz-adv-x="1096" d="M128 546q-14 52 38 120t138 143t192 153t204 152t173 139t97 114t-23 77t-187 28h-542q-16 32 -4 61t50 29h564q50 0 110 -28t102 -73t52 -102t-38 -113q-90 -106 -209 -184t-239 -152t-229 -159t-181 -205q-6 -8 -16 -15t-20 -9t-19 3t-13 21zM131 96q-9 22 1 48 q14 44 29 44t27 -23t18 -59t4 -61t-15 -29t-39 36q-16 22 -25 44z" />
<glyph unicode="@" horiz-adv-x="1334" d="M47 558q17 126 64 252t117 245t152 214t172 156t175 72t161 -37t130 -172q26 -58 42 -123t16 -129t-19 -127t-61 -117q-30 -40 -70 -83t-86 -78t-98 -55t-108 -12q-22 2 -58 0t-73 -5t-70 -3t-47 8q-80 40 -91 102t21 125t92 120t121 89t111 29t60 -57q8 -34 1 -73 t-20 -78t-27 -76t-20 -67q8 -16 19 -20t23 -2t25 9t23 13q140 94 203 209t45 287q-10 122 -61 172t-124 45t-159 -59t-170 -140t-156 -198t-115 -235t-48 -248t43 -239q42 -100 101 -145t129 -49t148 24t157 76t158 108t151 119t134 108t108 75q12 -74 -33 -149t-125 -145 t-185 -128t-212 -97t-206 -53t-167 6q-126 36 -195 116t-92 187t-6 233zM404 712q0 -26 4 -34q38 -22 66 4t47 69t29 89t14 64q-28 16 -54 -1t-47 -47t-36 -63t-19 -47q-4 -8 -4 -34z" />
<glyph unicode="A" horiz-adv-x="1694" d="M-203 -292q1 12 23 12q34 -47 90 -46q13 0 28 2q76 14 164 69t179 138t164 165t120 148t47 88q0 6 -16 19t-37 27l-39 26t-22 18q6 20 38 31t72 20t79 18t59 23q106 154 185 277t150 242t145 245t170 284q26 44 42 30t24 -68t10 -137q1 -42 1 -86.5t-1 -92.5 q-2 -96 -7 -196t-10 -184t-8 -145q-2 -37 -2 -58q0 -14 1 -21q8 -102 11 -177t19 -138t55 -122t119 -129q-31 -10 -57 -10q-29 0 -52 13q-43 25 -70 76t-44 118t-32 130t-34 110t-51 61q-2 0 -11 1t-20 1t-21 -1t-14 -1q-18 -4 -67 -16t-107 -26t-111 -28t-77 -20 q-50 -14 -105 -64t-116 -121t-126 -155t-133 -164t-138 -148t-140 -110t-141 -47h-14q-64 0 -125 41q-6 4 -19 19t-21 31t-7 28zM928 510q4 -2 21 -2t23 2q36 6 90 14t108 19t100 26t64 33l6 42t14 107t17 144t17 155t13 141t7 101q-3 1 -6 1q-21 0 -52 -52 q-36 -61 -93 -167t-138 -247t-191 -293v-24z" />
<glyph unicode="B" horiz-adv-x="1436" d="M40 140q0 36 18 80t42 102q6 12 24 49t41 87t50 105t50 105t40 87t23 49q23 50 23 90v9q-3 43 -10 81q-6 33 -6 65v9q1 36 37 82q6 6 26 28t43 47t43 46t24 27q10 12 57 40t115 61t151 68t165 62t158 41q53 10 96 10q18 0 34 -2q54 -6 79 -38q15 -19 15 -49q0 -22 -8 -49 q-30 -108 -97 -190t-141 -146t-141 -114t-99 -94q240 -8 351 -58t126 -126q3 -14 3 -29q0 -64 -52 -140q-64 -93 -176 -184t-254 -172t-283 -133t-264 -66q-32 -4 -60 -4q-81 0 -135 30q-60 34 -84 66t-24 68zM172 181q2 -47 30 -76t85 -35q10 -1 21 -1q53 0 132 23 q212 48 369 122t260 155t152 161q46 75 46 134v7q-3 61 -58 93q-39 23 -103 23q-26 0 -56 -4q-104 -13 -257 -82t-353 -211q-22 -18 -40 -17t-34 8t-30 13t-30 -4q-38 -46 -70 -101t-49 -108q-15 -47 -15 -90v-10zM348 615q0 -13 1 -25t1 -18q16 4 66 38t121 88t155 123 t169 144t162 150t133 141t85 117q21 36 21 61q0 10 -4 18q-30 4 -61 4q-60 0 -124 -15q-97 -23 -190 -67t-173 -101t-134 -111q-12 -26 -40 -92t-61 -140t-62 -139t-41 -91q0 -4 -10 -21t-12 -21q0 -6 -1 -18t-1 -25z" />
<glyph unicode="C" horiz-adv-x="1266" d="M9 335q9 101 64 216t136 231t179 226t194 202t180 160t136 100q70 43 118 43h2q48 -1 77 -30t40 -80q10 -47 10 -99v-9q-1 -57 -12 -114t-28 -99t-36 -62t-37 -2q-2 16 4 49t15 75t17 86t11 81t-2 63t-23 30q-18 5 -38 5q-57 0 -129 -38q-97 -51 -202 -146t-208 -220 t-187 -257t-138 -257t-61 -220q-1 -12 0 -23q0 -78 42 -123q36 -38 113 -38q27 0 60 5q114 16 211 81t188 144t181 156t188 117q36 14 57 -10t11 -58q-12 -34 -71 -90t-146 -117t-191 -122t-203 -105t-184 -64q-42 -10 -75.5 -10t-57.5 10q-122 48 -168 130q-38 69 -38 150 q0 16 1 33z" />
<glyph unicode="D" horiz-adv-x="1646" d="M46 22q-10 30 4 53t42 39q124 62 242 105t233 86t229 96t232 137q262 152 402 284t186 239q26 62 26 114q0 39 -14 74q-34 81 -118 131t-205 67q-56 8 -113 8q-68 0 -138 -11q-130 -20 -254 -79t-214 -163q-2 -4 -6 -14t-7 -21l-6 -22t-3 -13q-60 -144 -113 -247 t-100 -198t-89 -202t-80 -259q-36 -12 -51 2t-17 43v11q0 25 7 56q9 38 21 74t24 66t16 42q16 46 50 119t72 153t72 154t52 120q-11 36 -11 67q0 19 4 36q11 45 39 82t68 68t80 61q114 84 246 130t269 51q15 1 30 1q122 0 243 -36q136 -40 256 -130q96 -80 113 -174 q5 -26 4 -53q0 -69 -31 -140q-44 -99 -137 -201t-217 -200t-269 -189t-290 -168t-282 -136t-244 -93t-175 -41q-14 -1 -25 -1q-45 0 -53 22z" />
<glyph unicode="E" horiz-adv-x="1492" d="M36 46q-12 10 6 22q20 72 41 138t45 131t51 132t57 141q10 18 -3 37t-30 38t-24 40t15 43q2 2 15 6t29 7t29 6t17 5q6 4 23 21t21 23q32 54 61 96t54 84t45 88t36 108q6 24 -11 31t-39 13t-36 19t-2 49q8 22 77 48t175 50t238 44t264 32t252 15q26 1 50 1q88 0 154 -9 q84 -11 120 -38q18 -13 18 -31q0 -19 -20 -44q-18 -4 -37 -1t-39 9t-42 11t-42 3q-77 -6 -151 -6h-37q-92 2 -184 2t-184 -7t-184 -33q-64 -18 -114 -63t-95 -114t-90 -159t-101 -198q7 -2 17 -2q24 0 66 10q61 14 140 35t167 42t165 30q38 4 72 4.5t63 -4.5q58 -9 78 -47 q2 -4 2 -12t-2 -10q-106 -16 -219 -29t-224 -33t-217 -53t-200 -89q-76 -134 -136 -276t-106 -288q58 20 135 39t148 35t124 26t63 12q170 26 327 41q94 9 193 9q66 0 134 -4q14 -4 20 -16t8 -27t0 -29t-4 -20q-65 4 -131 4q-152 0 -302 -20q-215 -28 -427 -74 q-34 -8 -83 -28t-100 -36t-98 -22q-10 -1 -19 -1q-34 0 -60 17q-8 4 -14 10t-8 16z" />
<glyph unicode="F" horiz-adv-x="1488" d="M31 79q5 29 17 59t27 58t25 54q10 20 33 71t48 108t47 109t32 72q12 24 -3 43t-32 37t-26 36t15 42q14 14 36 18t46 7t44 11t32 32l228 432q-10 40 -10 70q0 11 1 20q5 36 24 62t50 48t71 50q206 32 405 54q137 15 279 15q65 0 130 -3q12 -2 30 -17t30 -34t11 -37 t-27 -24q-2 0 -12 3t-22 7t-22 8t-12 4q-160 0 -278 -4t-205 -17t-150 -39t-112 -71t-92 -113t-89 -166q-22 -42 -40 -80q-16 -34 -26 -67t-2 -55q51 -9 102 -9q62 0 125 13q115 24 231 58t233 61q77 18 155 18q40 0 80 -5v-46q0 -4 -74 -17t-189 -36t-252 -56t-263 -77 t-222 -100t-130 -122q-64 -130 -122 -267t-106 -275q-12 -18 -33 -22t-31 22q-10 28 -5 57z" />
<glyph unicode="G" horiz-adv-x="1216" d="M8 393q12 113 60 236t119 241t160 225t182 188t184 130t167 53q16 5 33 5q20 0 40 -7q37 -12 67 -37t50 -59t26 -67t-8 -62t-52 -43q-6 -4 -19 -4t-13 4v158q0 4 -10 9t-23 8t-26 5t-21 0q-198 -50 -339 -168t-235 -280q-134 -234 -195 -390t-68 -248q-1 -14 -1 -26 q0 -72 34 -103q36 -33 95 -33h13q68 4 158 41t183 92t181 122t154 129t101 113q26 38 26 61q0 8 -3 14q-13 2 -27 2q-20 0 -43 -5q-38 -9 -66 -19q-18 -6 -67 -22t-103 -34l-102 -34t-66 -24q-28 -10 -47 5t-26 38t-1 44t28 27q32 6 113 35t183 64t210 69t190 50q49 9 83 9 q24 0 42 -4q27 -7 27 -30q0 -15 -10 -35q-18 -20 -66 -69t-102 -103t-103 -102t-69 -66q-8 -6 -45 -38t-84 -71t-93 -78t-72 -59q-26 -22 -66 -56t-89 -69t-103 -66t-108 -49t-105 -18t-93 30q-88 66 -120 162q-23 70 -23 149q0 29 3 60z" />
<glyph unicode="H" horiz-adv-x="1418" d="M53 118q5 66 26 149t53 174t64 174t59 149t39 96q14 30 37 85t50 120t57 137t57 138t50 120t37 86q44 14 58 -3t8 -57t-28 -97t-51 -122t-60 -133t-56 -129t-38 -111q-9 -34 -9 -59q0 -11 2 -21q18 -2 39 -2t44 2q47 4 96 12t97 18t84 16q182 30 291 86t182 143t127 209 t124 284q18 34 32 29t23 -28t13 -51t0 -40q-2 -6 -12 -26t-22 -43t-22 -42t-12 -25q-4 -8 -10 -27t-14 -41t-14 -41t-8 -27q10 -2 27 -19t19 -27q1 -6 1 -12q0 -29 -23 -65q-28 -43 -69 -89t-80 -90t-53 -82q-82 -200 -141 -400t-87 -414q-6 -10 -18 -20t-26 -2q-1 12 -1 26 q0 39 8 95q11 77 29 168t40 185t41 173t31 131t10 58q-26 5 -61 5q-22 0 -47 -2q-66 -5 -144 -18t-162 -31t-163 -39t-147 -40t-112 -33q-34 -76 -56 -167t-45 -183t-51 -177t-74 -151q-4 2 -13 10t-11 12q-16 24 -16 71q0 12 1 25z" />
<glyph unicode="I" horiz-adv-x="440" d="M21 107q3 25 8 51t11 46t6 22l452 1176q14 36 26 27t19 -38t7 -66t-8 -59q-64 -152 -129 -305t-124 -308t-111 -312t-88 -319q-16 -10 -27 -8t-20 11t-14 21t-7 22q-4 14 -1 39z" />
<glyph unicode="J" horiz-adv-x="1244" d="M5 291q-5 37 6 62t47 31q2 -28 6 -72t18 -86t40 -75t72 -37q21 -2 40 -2q105 0 185 45q95 53 165 145t118 211t85 243t67 240t62 202q10 35 10 59q0 27 -12 40q-19 22 -57 22q-6 0 -13 -1q-48 -4 -113 -27t-129 -46t-120 -34q-20 -4 -36 -4q-31 0 -50 13q-32 21 -32 41 q0 7 4 14q14 27 66 52t135 47t178 42t194 37t185 29t151 20t91 12q34 4 94 11t122 15t110 13t58 5q38 2 95 4t111 2t94 -2t40 -4l22 -66q-54 -4 -146 -7t-202 -9t-228 -17t-220 -30t-180 -48t-110 -71q-16 -46 -38 -136t-54 -205t-73 -244t-92 -251t-113 -227t-137 -172 t-162 -86q-23 -5 -48 -5q-66 0 -141 38q-20 10 -47 40t-51 68t-43 81t-24 80z" />
<glyph unicode="K" horiz-adv-x="1590" d="M38 17q4 43 32 123t71 181t85 195t74 163t40 85q48 114 98 209t99 187t96 188t87 212q18 12 32 7t24 -17t13 -29t-1 -29q-12 -24 -37 -75t-52 -106t-51 -106t-36 -77q-4 -10 -16 -41t-8 -51q20 -4 45 -4q44 0 100 14q87 22 188 64t210 97t208 109t180 101t131 71 q48 24 50 8t-21 -48t-58 -67t-61 -49q-20 -12 -60 -33t-84 -42t-80 -39t-48 -22q-54 -24 -136 -54t-171 -64t-176 -73t-149 -81q-16 -12 -28 -24q-10 -10 -17 -22t1 -22q30 -18 92 -72t140 -128t165 -164t169 -182t150 -180t109 -159t47 -119q1 -6 1 -11q0 -38 -39 -47 q-4 2 -11 10t-11 12q-64 102 -127 186t-131 163t-143 159t-163 170q-126 132 -209 196t-138 74q-11 2 -21 2q-41 0 -70 -33q-36 -41 -70 -120t-72 -191t-98 -244q-20 -42 -45 -97t-69 -85q-34 -22 -30 21z" />
<glyph unicode="L" horiz-adv-x="1402" d="M32 88q6 44 28 90q22 52 64 114q64 122 115 219t95 183t84 166t81 168t85 188t98 228q4 8 13 23t22 24t27 6t28 -29q11 -22 11 -52q0 -26 -8 -58q-17 -70 -59 -161t-100 -196t-122 -213t-126 -214t-109 -198t-72 -167q-19 -57 -19 -96q0 -12 2 -23q66 -7 133 -7 q76 0 153 9q144 16 288 39t289 41q93 12 186 12q52 0 103 -4q26 4 44 -18t2 -48q-4 0 -17 1t-27 1t-27 -1t-19 -1q-112 -10 -262 -35t-310 -47t-319 -34q-73 -6 -140 -6q-78 0 -147 8q-2 0 -19 9t-23 13q-27 19 -27 53q0 6 1 13z" />
<glyph unicode="M" horiz-adv-x="2028" d="M67 90q7 58 39 147t82 202t109 233t121 240t118 222t99 179t63 113q32 -12 58 -12q8 0 16 1q32 5 60 21t55 38t61 42q63 39 103 39q5 0 11 -1q42 -6 61 -44t19 -103t-10 -141t-27 -155t-33 -146t-27 -114t-9 -59q16 -8 27 2t19 20q6 10 29 38t53 65t64 79t65 79t53 65 t30 38q174 138 295 205t196 75q12 1 22 1q58 0 87 -37q34 -44 36 -125v-12q0 -77 -24 -182q-26 -113 -70 -243q-6 -18 -23 -75t-41 -134t-49 -163t-49 -163t-41 -134t-23 -75q0 -2 -4 -26t-13 -57t-21 -70t-30 -67t-41 -46t-51 -6q-2 0 -10 9t-10 13q-2 2 -2 11t2 13t8 24 t14 42t14 42t8 26q58 186 102 333t84 287t79 289t87 339v44q-26 9 -55 9q-34 0 -70 -13q-67 -24 -137 -78t-142 -129t-140 -158t-132 -164t-118 -148t-97 -110t-69 -49q-18 -4 -44 5t-26 19v136q6 22 17 70t24 108t28 126t28 126t23 107t16 71q10 46 19 90q5 26 5 54 q0 19 -2 38q-17 6 -34 6q-45 0 -94 -37q-68 -51 -139 -149t-143 -228t-140 -268t-131 -272t-115 -237t-91 -164q-34 -54 -56 -54q-3 0 -5 1q-22 6 -22 45q0 9 1 21z" />
<glyph unicode="N" horiz-adv-x="1660" d="M20 22q0 18 2 24q14 62 49 138t77 150t82 141t64 113q12 24 37 73t56 112t66 131t66 131t56 112t37 73q43 45 76 45q14 0 27 -9q41 -28 73 -114t58 -212t56 -258t68 -252t92 -194q6 -3 13 -3q22 0 50 29q37 38 81 111t92 171t97 206t95 218t86 203t69 163t45 98 q14 26 29 25t25 -16t15 -38t-1 -41q-64 -174 -120 -314t-115 -270t-126 -265t-153 -299q-64 -78 -124 -87q-5 -1 -10 -1q-55 0 -114 88q-66 116 -104 220t-65 205t-49 206t-54 227q-3 2 -7 2q-18 0 -53 -44q-42 -54 -97 -144t-115 -202t-114 -216t-96 -186t-60 -114 q-10 -18 -25 -44l-30 -52t-26 -44l-11 -18h-68q-2 4 -2 22z" />
<glyph unicode="O" horiz-adv-x="1054" d="M40 301q10 87 49 175t81 156q14 24 52 82t81 123t82 122t55 79q24 154 96 245t163 125q58 22 119 22q34 0 68 -7q96 -19 168 -86t104 -179q15 -52 15 -112q0 -70 -20 -150q-37 -150 -157 -336t-352 -402q-40 -38 -95 -73t-116 -57t-123 -26q-9 -1 -18 -1q-52 0 -98 21 q-100 42 -132 117q-24 57 -24 121q0 20 2 41zM124 180q20 -90 76 -112q24 -9 51 -10q37 0 81 18q76 30 166 102t180 169t172 211t143 226t93 214q24 76 24 137q0 21 -3 40q-11 75 -72 113q-43 27 -118 27q-32 0 -69 -5q-46 -40 -122 -117t-162 -175t-172 -211t-152 -225 t-100 -216q-22 -68 -22 -127q0 -31 6 -59z" />
<glyph unicode="P" horiz-adv-x="1216" d="M44 134q14 56 41 116t57 116t46 92q6 12 9 20t6 18t7 22t14 34q12 26 39 81t61 124t71 145t70 145t60 124t39 81v46q-14 2 -27 2q-22 0 -43 -6q-34 -10 -65 -28t-60 -41t-53 -41q-28 6 -32 26t4 42t23 41t27 27q208 130 446 173q130 23 261 23q110 0 221 -16 q148 -74 202 -157q42 -65 42 -132q0 -19 -3 -37q-15 -86 -88 -170t-180 -161t-236 -143t-256 -114t-241 -75t-190 -27q-38 -60 -62 -99t-38 -68t-23 -54t-18 -56t-23 -75t-38 -110l-22 -22q-8 4 -25 21t-21 25q-9 17 -9 41q0 21 7 47zM384 598q36 -6 73 -6q51 0 105 11 q94 19 187 55t179 81t156 83q168 94 251 183t101 166q6 26 6 50q0 47 -23 87q-35 60 -104 97t-160 47q-27 3 -54 3q-65 0 -130 -17q-93 -24 -177 -86t-140 -168q-20 -38 -48 -93t-58 -115t-60 -119t-53 -106t-37 -77t-14 -32v-44z" />
<glyph unicode="Q" horiz-adv-x="1186" d="M134 262v10q0 100 36 206q38 112 103 227t138 219t143 189t116 139q32 38 69 86t80 94t91 83t100 55q16 6 30 -6t26 -29t21 -33t13 -22q90 -110 127 -239q30 -106 30 -216q0 -23 -1 -47q-8 -134 -55 -266t-123 -248q-6 -12 -37 -52t-65 -85t-65 -85t-37 -50 q-34 -48 -38 -96q-1 -12 -1 -24q0 -36 9 -71q12 -47 34 -93t41 -90t28 -86q4 -16 4 -33q0 -25 -9 -49q-16 -8 -27 2t-19 20q-26 32 -44 87t-37 110t-42 101t-57 62q-12 8 -43 -3t-73 -26t-93 -28q-41 -11 -85 -11q-10 0 -20 1q-54 3 -107 28t-99 85q-60 80 -62 184zM242 124 q2 -4 12 -14t20 -21t20 -21t16 -12q76 -51 137 -51q7 0 13 1q66 6 116 52t84 121t56 154t32 151t12 114q2 2 15 2t28 -1t26 -7t11 -16v-226q68 50 126 124t101 160t69 176t32 172q3 54 3 101q0 136 -26 207q-35 96 -101 103q-6 1 -13 1q-61 0 -141 -60q-88 -66 -181 -178 t-181 -254t-155 -285t-104 -274q-29 -103 -29 -180q0 -20 2 -39z" />
<glyph unicode="R" horiz-adv-x="1374" d="M36 22q-5 15 -5 35q0 42 23 108q34 97 93 220t132 255t134 247t100 196q32 67 32 94q0 5 -1 9q-24 8 -51 -6l-54 -28t-53 -16t-46 28q-10 14 -7 27t12 25t20 21t19 15q228 150 433 234t368 114q102 19 183 19q49 0 91 -7q111 -18 153 -73q22 -29 22 -68q0 -34 -17 -74 q-37 -87 -170 -195t-374 -231t-605 -251q-8 -13 -8 -26q0 -21 19 -46q31 -40 92 -87t144 -97t168 -101t162 -100t127 -93t65 -82q4 -10 4 -19q0 -26 -31 -47q-2 -2 -25 15t-57 44t-73 59t-74 60l-60 48t-29 24q-120 76 -240 150t-234 166q-7 2 -14 2l-62 -42 q-38 -52 -74 -133t-71 -172t-65 -158t-54 -92q-8 -8 -15 -8q-15 0 -27 37zM512 856q21 -7 48 -7q31 0 71 9q75 16 166 54t190 92t189 113t165 119t117 111q45 55 45 91q0 33 -49 42q-30 1 -58 1q-179 0 -310 -22q-152 -25 -260 -93t-182 -186t-132 -300v-24z" />
<glyph unicode="S" horiz-adv-x="1228" d="M21 136q-13 26 25 44q22 -20 61 -48t75 -42q60 -3 118 -3q49 0 96 2q104 5 203 26t192 64t181 113q98 82 129 151q19 43 19 82q0 24 -7 46q-19 59 -78 110t-140 96t-173 84t-176 76t-152 73t-100 74q-1 5 -1 11q0 30 35 69q42 46 116 95t170 98t197 89t196 68t167 35 q20 2 38 2q45 0 72 -13q29 -14 29 -46q0 -10 -3 -22q-14 -2 -72 -18t-141 -40t-180 -56t-191 -67t-174 -71t-126 -70q-51 -38 -51 -66q0 -25 53 -44q292 -88 459 -187t235 -200q55 -82 55 -162q0 -19 -3 -37q-16 -98 -87 -182t-185 -149t-241 -101t-254 -38h-11 q-120 0 -214 40q-10 4 -47 22t-69 42t-45 50z" />
<glyph unicode="T" horiz-adv-x="1116" d="M36 1018q14 26 102 60t225 71t306 75t345 72t344 62t300 46t213 24q30 2 50 2q33 0 35 -6q6 -16 2 -39t-26 -29q-98 -16 -212 -35t-231 -40t-229 -42t-208 -41q-62 -12 -120 -72t-112 -149t-104 -198t-95 -221t-83 -216t-70 -183t-56 -123t-40 -36l-12 12l-10 10 q-6 24 -6 51q0 30 7 64q13 65 37 131t52 127t46 101q10 24 31 70t48 104t56 122t56 122t48 103t31 67q-11 2 -26 2q-29 0 -71 -8q-63 -12 -139 -31l-156 -39t-149 -29q-39 -5 -71 -5q-25 0 -47 3q-49 7 -61 41z" />
<glyph unicode="U" horiz-adv-x="1216" d="M66 376q8 112 42 235t81 242t100 227t98 190t76 130t35 46q16 -8 22 -21t7 -29t-1 -32t-4 -30q-2 -4 -12 -23t-12 -23q-156 -342 -234 -573t-96 -369q-6 -47 -6 -84q0 -73 23 -109q29 -46 83 -46q11 0 23 2q71 11 170 78t210 173t225 242t217 284t184 298t127 286 q4 4 11 13t11 9q45 -30 45 -95q0 -16 -3 -34q-14 -91 -77 -213t-166 -264t-224 -280t-249 -261t-244 -207t-207 -119q-44 -17 -77 -17q-37 0 -62 20q-72 58 -98 150q-20 70 -20 152q0 26 2 52z" />
<glyph unicode="V" horiz-adv-x="1120" d="M53 709q3 133 23 251t57 206t93 122q8 -6 8 -40q0 -14 -1 -33q-5 -65 -19 -164t-31 -219t-30 -238t-16 -221q0 -15 -1 -30q0 -83 15 -140q17 -67 56 -84q9 -4 20 -4q36 0 91 43q164 130 319 287t291 301q166 176 316 354t294 370q18 26 37 28t33 -12t20 -37t0 -47 q-14 -16 -44 -49t-68 -76t-80 -90t-80 -89t-68 -76t-44 -50q-36 -40 -94 -111t-130 -158t-154 -182t-167 -182t-167 -160t-154 -114t-129 -44h-6q-53 0 -85 47q-36 56 -61 158t-36 226q-9 97 -9 200q0 29 1 57z" />
<glyph unicode="W" horiz-adv-x="1404" d="M37 352q-1 39 -1 80q0 82 4 172q6 136 18 270t31 258t41 217t46 145q21 45 43 45q3 0 7 -1q4 -4 13 -12t11 -12v-13q0 -24 -4 -70q-6 -61 -17 -146t-24 -187t-27 -207t-26 -204t-19 -178t-7 -131t10 -62l22 -24q30 14 62 73t65 144t68 187t70 201t69 187t68 144t66 71 q8 4 16 4q23 0 45 -34q29 -45 56 -159t49 -318q0 -10 10 -63t25 -122t35 -140t42 -118t46 -56q3 -1 7 -1q20 0 39 48q6 16 27 68t49 122t59 148t59 148t49 122t29 70q8 20 26 72t45 117t61 135t72 125t79 85q28 20 56 20q13 0 27 -4q4 0 12 -9t8 -13q-124 -160 -205 -320 t-142 -327t-116 -340t-127 -355q-30 -78 -63 -90q-8 -3 -17 -3q-24 0 -48 26q-32 35 -63 105t-59 157t-52 179t-42 171t-29 134l-13 65q-4 16 -7 38t-7 44q-4 24 -8 54h-22q-2 0 -24 -41t-51 -98t-59 -119t-48 -102q-10 -20 -31 -93t-51 -167t-65 -192t-72 -169t-74 -99 q-14 -11 -27 -11q-21 0 -40 29q-26 38 -39 126t-16 204z" />
<glyph unicode="X" horiz-adv-x="1074" d="M50 81q2 27 18 55q24 40 69 91t97 108t104 116t92 116t60 108q12 32 12 60q0 17 -4 33q-8 16 -27 55t-40 82t-41 81t-28 52q-4 6 -17 29t-29 50t-29 51t-15 30q-4 4 -4 22t4 24q20 16 48 -13t59 -80t64 -114t64 -116t58 -85t47 -22q2 6 12 18t20 27t20 27t14 18 q14 18 40 68t61 99t79 82q32 24 67 24q13 0 25 -3q36 -8 25 -43t-46 -83t-86 -106t-95 -112t-73 -101q-22 -35 -22 -58q0 -8 3 -15q12 -32 47 -87t78 -121t88 -136t81 -132t56 -111q14 -35 14 -55q0 -8 -2 -14q-4 -2 -12 -2t-10 2q-4 2 -13 10t-20 19t-21 22t-14 17 q-12 16 -41 60t-66 102t-78 120t-77 112t-64 79t-38 23q-124 -116 -224 -240t-204 -256q-28 -36 -49 -40t-30 11t-7 42z" />
<glyph unicode="Y" horiz-adv-x="804" d="M70 1351q6 15 42 -3q28 -26 70 -83t87 -128t92 -146t87 -134t70 -94t44 -25q20 40 59 127t85 190t95 206t92 175t76 97q11 8 19 8q18 0 26 -35q2 -7 2 -17q0 -31 -20 -88q-26 -75 -74 -180t-113 -234t-136 -267t-142 -277t-133 -266t-108 -233t-66 -178q-6 -20 -19 -39 t-29 -27t-33 1t-31 43t-14 71q0 27 8 55q18 66 58 139t94 151t102 161t80 171t32 178q-8 18 -36 61t-66 100l-82 123t-85 129t-74 120t-49 95t-10 53z" />
<glyph unicode="Z" horiz-adv-x="1684" d="M58 22q-19 14 -19 37t19 55q38 64 123 153t205 195t249 218t254 223t219 209t145 176q37 56 37 96q0 15 -6 28q-4 0 -46 -8t-108 -20t-147 -24t-162 -21t-152 -13q-26 -1 -48 -1q-39 0 -69 4q-46 7 -59 27q-3 5 -3 12q0 18 26 44q14 -2 31 -1q36 0 86 8q73 13 160 32 t180 41t177 36t152 14t103 -24q31 -22 32 -66q0 -5 -1 -10q-4 -52 -62 -144q-104 -164 -228 -291t-260 -241t-278 -226t-280 -248q-2 0 -22 -21t-43 -50t-39 -59t-10 -48q6 -2 16 -2q28 0 86 12q80 16 194 44t250 61t272 63t259 50t210 20t127 -26q23 -15 23 -41 q0 -19 -13 -45q-50 -4 -142 -17t-209 -32t-250 -42l-266 -46t-257 -43t-221 -33t-160 -18q-24 -2 -41 -2q-27 0 -34 5z" />
<glyph unicode="[" horiz-adv-x="948" d="M68 -112q-2 24 1 101t11 185t21 239t30 265t39 261t47 229t53 167t60 75q4 2 27 5t50 6t50 6t29 5q20 6 69 21t103 33t102 35t66 25q14 4 38 -1t40 -15t17 -25t-29 -29q-152 -44 -252 -82t-164 -85t-100 -109t-59 -154t-42 -220t-49 -306q-14 -48 -25 -129t-17 -168 t-7 -169t3 -132l680 34q18 -30 -4 -48t-56 -28t-66 -13t-34 -3q-78 -10 -141 -16t-124 -9t-128 -2t-151 5q-6 2 -32 10t-34 12q-4 2 -13 11t-9 13z" />
<glyph unicode="\" horiz-adv-x="656" d="M40 1032q20 70 50 48t69 -104t87 -206t107 -257t128 -258t151 -209q-22 -34 -44 -45t-46 21q-54 54 -108 132t-104 170t-95 191t-82 193t-66 178t-47 146z" />
<glyph unicode="]" horiz-adv-x="892" d="M26 1402q-12 16 41 36t139 37t190 26t196 3t155 -30t69 -72q8 -78 6 -194t-9 -253t-16 -283t-15 -283t-5 -254t13 -193q0 -6 2 -20t1 -29t-6 -27t-19 -14q-72 8 -167 -13t-187 -40t-169 -19t-111 50q-12 18 21 37t91 36t128 32t132 27t104 19t44 7q-2 70 2 181t10 242 t15 273t15 273t8 241t-2 180q-30 2 -85 -4t-123 -14t-142 -14t-140 -4t-116 15t-70 45z" />
<glyph unicode="^" horiz-adv-x="520" d="M64 814q8 18 31 63t49 96t48 96t30 63q44 94 82 119t68 4t52 -78t35 -126t18 -140t2 -120t-17 -66t-36 23q-2 4 -9 31t-17 65t-21 81t-23 77t-23 52t-19 10q-6 -10 -18 -40t-29 -68t-37 -78t-44 -70t-49 -43t-51 5q-10 6 -20 18t-2 26z" />
<glyph unicode="_" horiz-adv-x="1254" d="M36 46q2 6 52 16t130 22t184 24t212 22t212 15t187 5t137 -9t60 -27q2 -4 2 -22t-2 -24q-38 -2 -116 -8t-176 -13t-206 -14t-206 -14t-176 -12t-116 -7q-24 -2 -44 -2t-37 1t-35 7t-40 16q-4 2 -13 11t-9 13z" />
<glyph unicode="`" horiz-adv-x="340" d="M91 1002q-11 26 1 86q44 4 88 -26t81 -72t60 -87t25 -72t-24 -26t-86 51q-28 48 -58 68t-53 36t-34 42z" />
<glyph unicode="a" horiz-adv-x="1404" d="M61 164q-1 12 -1 25q0 68 23 151q27 98 80 205t123 204t152 174t164 114q63 29 124 29q18 0 36 -3q78 -11 142 -91q40 -50 48 -101q4 -23 4 -46q0 -29 -6 -58q-10 -53 -32 -108t-43 -111t-34 -114q-8 -36 -8 -73q0 -23 3 -45q10 -76 68 -90q23 -5 49 -5q41 0 90 13 q81 22 171 70t167 96t128 84l51 36q22 5 36 5q23 0 27 -12q7 -19 -22 -56t-87 -84t-132 -91t-158 -80t-164 -49q-37 -6 -72 -6q-41 0 -79 8q-71 15 -117 71q-22 24 -33 48t-35 42q-30 -28 -72 -73t-91 -90t-104 -85t-113 -60q-45 -15 -90 -15q-14 0 -27 1q-59 6 -113 52 q-48 40 -53 118zM136 114q17 -59 71 -59h9q62 5 144 61t170 153t158 216t107 251q25 89 25 176q0 42 -6 84q-25 20 -56 20q-29 0 -64 -17q-72 -35 -153 -114t-160 -188t-139 -220t-91 -209q-20 -65 -21 -111q1 -24 6 -43z" />
<glyph unicode="b" horiz-adv-x="1096" d="M32 78q0 8 4 12q26 52 58 137t68 186t73 210t74 210t73 185t68 135t58 60q4 1 8 1q21 0 38 -40q12 -32 12 -65q0 -15 -2 -30q-8 -49 -31 -100t-54 -104t-57 -105t-42 -104q-11 -35 -11 -68q0 -17 3 -34q56 14 101 54t88 85t89 83t106 50q38 7 70 7q49 0 88 -16 q64 -27 95 -83q29 -53 30 -125q0 -5 -1 -9q-2 -78 -40 -162t-114 -164t-192 -142t-274 -96q-122 -26 -270 -26q-44 0 -90 2q-4 4 -13 22t-9 24q-4 2 -4 10zM212 147q0 -25 2 -33q42 -6 85 -6q92 0 184 27q135 39 241 122t168 203q51 98 51 212q0 26 -3 52q-2 4 -11 12 t-13 10q-21 3 -42 3q-47 0 -96 -15q-72 -22 -144 -65t-139 -103t-123 -126t-97 -134t-61 -126q-2 -8 -2 -33z" />
<glyph unicode="c" horiz-adv-x="1118" d="M51 291q15 91 69 192t128 193t156 166t155 112q60 31 106 31q10 0 19 -1q52 -8 64 -80q2 -10 2 -21q0 -23 -9 -49q-13 -38 -36 -73t-52 -64t-56 -43t-48 -10t-27 34q24 40 54 81t58 77q-12 22 -46 10t-82 -48t-101 -91t-103 -119t-89 -133t-57 -133q-12 -43 -12 -81 q0 -19 3 -38q9 -55 57 -89q16 -1 33 -1q54 0 119 14q86 19 176 49t179 65t162 65t124 47q35 12 53 12q9 0 14 -3q20 -11 20 -27q0 -14 -15 -31q-33 -38 -111 -82t-185 -87t-215 -74t-204 -44q-40 -5 -73 -5q-46 0 -77 10q-102 34 -135 106q-23 50 -23 108q0 27 5 55z" />
<glyph unicode="d" horiz-adv-x="1088" d="M9 155q-5 22 -5 48q0 35 10 77q18 72 62 145t114 139t161 108t202 53q26 3 53 3q88 0 186 -28l22 24l270 542q54 -8 64 -48q5 -19 5 -40q0 -23 -6 -48q-11 -48 -32 -93t-31 -65l-23 -46t-40 -81t-49 -99t-49 -99t-41 -82t-22 -45q-33 -68 -33 -144v-13q3 -83 9 -159 q8 -36 32 -59t51 -42t54 -37t45 -44q-8 -26 -32 -27t-50 9t-48 24t-28 18q-76 52 -110 129t-50 165h-22q-162 -132 -281 -198t-201 -81q-29 -5 -53 -5q-45 0 -75 18q-46 28 -59 81zM109 289q-8 -33 -8 -67q0 -43 13 -86q6 -24 34 -24q12 0 27 4q53 14 125 59t153 109 t146 128t102 118q27 39 27 64q0 9 -4 16q-62 34 -138 34t-151 -27t-144 -76t-116 -113t-66 -139z" />
<glyph unicode="e" horiz-adv-x="870" d="M35 279q7 55 23 105q60 64 135 147t159 163t175 149t185 105q32 14 51 -1t27 -47q7 -28 7 -65v-9q-1 -42 -7 -82t-16 -72t-20 -44q-24 -28 -93 -66t-153 -83t-168 -93t-138 -95t-64 -93q-1 -6 -1 -12q0 -39 57 -72q24 -3 51 -3q51 0 114 10q97 15 198 40t195 52t154 43 l24 -22q-44 -58 -144 -106t-216 -79t-226 -40q-32 -3 -60 -3q-69 0 -114 16q-60 20 -91 61t-41 91q-6 29 -6 61q0 21 3 44zM288 504q9 -2 20 -2q27 0 63 11q51 15 106 43t105 63t79 69t30 60t-43 38q-2 2 -30 -17t-69 -50t-88 -68t-86 -69t-65 -55t-22 -23z" />
<glyph unicode="f" horiz-adv-x="940" d="M34 525q-2 11 2 17q6 2 22 8t34 14t34 14t22 10q6 2 33 12t58 21t57 21t32 14q24 16 57 79t75 151t92 189t108 194t122 166t133 104q40 18 82 18q30 0 61 -9q74 -22 152 -118q14 -20 20 -43t2 -47q-18 -10 -36 -4t-33 20t-27 29t-16 23q-54 9 -98 9q-68 0 -115 -20 q-79 -33 -130 -100t-89 -159t-88 -190q-14 -24 -33 -62l-37 -74l-31 -62l-13 -26v-24q0 -8 50 -12t113 -12t122 -23t77 -43l-22 -22q-86 4 -151 4h-41q-78 -2 -136 -26t-102 -77t-90 -149q-16 -34 -42 -87t-52 -104t-44 -88t-20 -39l-24 -22q-6 4 -23 21t-21 25q-4 4 -4 22 t4 22l168 386h-190q-6 0 -11 8t-8 19t-5 22z" />
<glyph unicode="g" horiz-adv-x="724" d="M-459 -300q-2 22 -2 41q0 28 4 51q7 40 24 61t39 11v-15q0 -163 41 -248q43 -89 112 -112q28 -9 59 -9q45 0 97 20q87 34 176 105t170 170t137 206t80 212q12 50 12 96q0 50 -14 95q-180 -130 -280 -164q-52 -18 -88 -18q-32 0 -51 15q-29 23 -29 72q0 18 4 39 q14 80 60 176t116 193t144 163t143 84q16 4 31 4q49 0 84 -46q46 -62 58 -167q5 -42 5 -88q0 -68 -11 -145q-18 -128 -63 -268t-111 -273t-151 -247t-183 -190t-206 -103q-42 -11 -85 -11q-67 0 -135 26q-62 22 -101 66t-60 95t-26 103zM132 372q0 -18 1 -34t3 -22 q17 -4 33 -4q49 0 99 34q68 46 125 118t96 152t48 134q2 12 2 22q0 34 -23 39q-3 1 -6 1q-31 0 -104 -66q-24 -22 -64 -60t-81 -82t-76 -91t-49 -85q-2 -6 -3 -22t-1 -34z" />
<glyph unicode="h" horiz-adv-x="1108" d="M20 57q0 7 2 11q8 16 27 55t40 82t41 81t28 54q4 6 21 34t42 69t54 91t58 98t54 90t41 70q40 66 93 156t109 182t111 178t101 142t78 74t44 -24v-64q-14 -22 -38 -57t-49 -74t-49 -75t-36 -56q-18 -28 -58 -90t-90 -140t-102 -163t-94 -159t-67 -127q-20 -43 -20 -60 q0 -4 1 -7q48 14 103 51t111 79t112 81t104 61q48 -6 84 -36t52 -76q-2 -18 -3 -67t-1 -103t1 -102t3 -66q2 -22 20 -55t39 -66t38 -57t15 -26q-21 -7 -40 -7q-18 0 -36 6q-36 13 -63 42t-44 66t-21 73q-2 18 -6 67t-7 103t-6 102t-3 66l-46 24q-12 6 -41 -10t-67 -44 t-80 -64t-79 -68t-63 -56t-32 -30q-16 -16 -58 -57t-89 -88t-88 -89t-57 -60q-28 -6 -53 -5t-39 29q-2 4 -2 11z" />
<glyph unicode="i" horiz-adv-x="508" d="M22 22q82 264 149 419t112 217q33 46 51 46q6 0 10 -6q7 -10 7 -34q0 -29 -10 -78q-19 -90 -80 -241t-171 -345q-16 -6 -38 -2t-30 24zM368 1020q0 26 4 32q26 9 45 9q14 0 25 -5q24 -12 30 -35t-1 -49t-23 -39t-37 -4t-39 55q-4 10 -4 36z" />
<glyph unicode="j" horiz-adv-x="372" d="M-691 -459q5 51 69 99q14 -2 20 -20t9 -44t6 -56t14 -58t31 -48t56 -24q23 -3 44 -3q66 0 122 32q74 43 133 123t107 187t88 221t72 228t62 206t58 154t60 74q25 -10 25 -73q0 -68 -24 -178q-23 -105 -65 -234t-98 -258t-125 -247t-144 -201t-155 -119q-41 -19 -82 -19 l-78 17q-50 22 -101 60t-80 84q-25 39 -25 82q0 8 1 15zM244 1007q12 21 34 19t42 -31q12 -18 12 -49q0 -19 -4 -42q-10 -6 -22 0t-22 16t-14 15l-10 15q-28 36 -16 57z" />
<glyph unicode="k" horiz-adv-x="1458" d="M36 90q-1 5 -1 11q0 22 15 66q20 57 59 138t92 180t112 203t118 206t110 189t91 153t58 98q14 10 29 2t26 -25t15 -36t-4 -31l-180 -316v-46q16 -4 34 -4q31 0 71 11q63 17 136 49t149 75t145 86t124 82t87 63q26 14 47 8t32 -22t9 -38t-20 -40q-56 -58 -133 -99 t-163 -74t-175 -62t-171 -63t-150 -76t-112 -100q26 -22 69 -69t94 -105t103 -123t93 -126t68 -110t27 -77v-46q-16 -8 -29 -5t-25 11t-21 19t-17 21q-128 176 -206 291t-128 171q-48 54 -80 54h-2q-32 -2 -69 -61t-91 -173t-148 -282q-12 -22 -25 -27t-25 0t-22 19t-16 30z " />
<glyph unicode="l" horiz-adv-x="656" d="M34 267q12 75 43 155t68 154t72 136t55 102l29 58t49 100t49 101t29 59q6 10 17 39t25 63t31 65t36 45t38 4t37 -60q-8 -20 -39 -80t-73 -144l-93 -186t-99 -206t-90 -203t-69 -180t-32 -134q-1 -9 -1 -17q0 -38 20 -48q23 -12 58 -12q7 0 15 1q45 3 93 11t94 17 q38 7 67 7h13q8 -18 -12 -35t-56 -30t-83 -22t-90 -13q-29 -3 -53 -3q-12 0 -23 1q-33 2 -45 10q-58 42 -75 106q-10 38 -10 79q0 29 5 60z" />
<glyph unicode="m" horiz-adv-x="1650" d="M44 78q0 8 2 12q10 20 31 63t47 97t56 113t57 112t48 95t33 62q10 20 28 51t36 60t32 50l14 21h48q6 -20 6 -39q0 -24 -10 -47q-18 -40 -43 -78t-42 -75q-9 -19 -9 -39q0 -19 8 -40q172 152 265 224t131 82t36 -30t-17 -108t-30 -155q-8 -48 -8 -95q0 -37 5 -74h24 q12 8 40 30t61 48t62 48t41 30q22 18 64 50t85 65t78 58t45 31q8 6 35 25t60 41t63 41t44 29q30 20 56 18t43 -19t21 -46q1 -7 1 -15q0 -23 -9 -50q-48 -90 -95 -176t-86 -173t-64 -179t-27 -196q-10 -6 -21 0t-21 16t-14 15l-10 15q-22 26 -25 59q-1 10 -1 20q0 23 5 46 q7 33 20 64t25 57q8 20 33 73t54 111t55 109t36 71v44q-4 2 -10 2q-23 0 -72 -29q-62 -37 -144 -102t-174 -145t-173 -153t-141 -130t-76 -75q-13 -4 -23 -4q-24 0 -34 23q-9 23 -9 57q0 16 2 35q6 59 24 132t37 138t34 111t13 50q-15 5 -30 5q-26 0 -54 -15 q-44 -24 -90 -71t-92 -110l-92 -126t-88 -120t-80 -93t-71 -42q-5 -1 -9 -1q-27 0 -48 31q-2 2 -2 10z" />
<glyph unicode="n" horiz-adv-x="1152" d="M36 136q-2 2 23 51t62 123t82 160t85 161t70 127t38 56q42 -28 43 -61v-5q0 -31 -11 -63q-12 -35 -27 -71q-9 -22 -9 -43q0 -14 4 -29q32 22 89 61t124 81t140 82t137 63t115 25h6q47 0 69 -30q17 -23 18 -68q0 -17 -3 -37q-9 -73 -63 -199q-6 -14 -29 -67t-50 -114 t-50 -114t-29 -67q-2 -8 -5 -29t-7 -46t-12 -48t-20 -35t-28 3t-18 19q-2 17 -2 34q0 49 13 97q17 65 46 128t62 126t57 124t34 120q4 21 4 42q0 38 -12 75q-20 7 -43 7q-33 0 -72 -15q-65 -26 -137 -79t-149 -124t-150 -144l-139 -139t-119 -109t-89 -54t-48 25z" />
<glyph unicode="o" d="M53 124q-10 33 -10 70q0 39 11 81q22 83 76 172t120 163t133 125t115 57q40 5 75 5q72 0 120 -22q71 -33 97 -95q18 -42 18 -95q0 -24 -4 -50q-12 -83 -53 -167t-106 -162t-144 -131t-167 -70q-29 -6 -59 -6l-117 23q-84 34 -105 102zM136 136q16 -64 68 -71q9 -1 19 -2 q45 0 102 28q69 33 145 96t139 137t104 149q40 73 40 128q0 58 -54 88q-33 18 -92 18q-37 0 -85 -7q-28 -26 -72 -63t-91 -81t-93 -95t-80 -105t-49 -110q-8 -29 -8 -57q0 -27 7 -53z" />
<glyph unicode="p" horiz-adv-x="1084" d="M-180 -700q-7 43 -7 86q0 70 18 141q29 115 76 229t95 227t66 221q0 4 17 24t38 43t38 44t19 25q32 70 65 129t51 115q16 50 16 100v11q-2 55 -40 119q-4 4 -4 12t4 10q58 74 134 124t162 80t178 40q58 6 114 6q34 0 68 -2q76 -64 97 -145q11 -43 11 -87q0 -40 -9 -81 q-19 -87 -70 -175t-117 -164t-139 -136t-137 -92q-58 -28 -85 -37t-53 -11t-63 -4t-113 -16q-34 -6 -57 -31t-38 -56t-24 -64t-17 -53q-36 -88 -65 -163t-56 -148t-53 -151t-54 -170q-4 -10 -14 -17t-21 -8t-20 4t-11 21zM272 226q36 -7 71 -7q55 0 108 17q87 28 163 87 t137 142t103 175t62 185q14 66 14 125q0 24 -2 46q-28 24 -67 25h-15q-30 0 -54 -3q-108 -14 -170 -55t-101 -103t-67 -143t-68 -175q-8 -14 -24 -49t-34 -74t-34 -75t-22 -50v-68z" />
<glyph unicode="q" horiz-adv-x="792" d="M30 304q0 36 28 104q8 22 37 63t72 90t97 102t111 98t114 76t105 37q10 1 19 1q37 0 67 -19q38 -24 56 -88q4 -16 0 -44t-13 -59t-18 -59t-15 -42q-20 -56 -81 -145t-135 -197t-150 -227t-126 -233t-64 -217q-3 -23 -3 -44q0 -75 39 -133q4 -6 12 -6q17 0 52 26 q52 38 126 102t159 139t161 131t134 78q21 8 36 8q29 0 42 -26q4 -4 4 -12t-4 -12q-30 -22 -89 -77t-133 -121t-156 -133t-157 -115t-137 -66q-21 -6 -40 -6q-34 0 -56 22q-58 56 -67 136q-3 29 -3 58q0 52 10 106q16 84 48 166t58 144q42 100 53 159q6 34 6 59q0 19 -3 32 q-8 32 -32 44t-51 17t-54 9t-43 21t-16 53zM144 316q0 -14 1 -27t3 -17q21 -7 42 -7l62 16q52 27 101 77t95 111t87 112t74 80q23 21 43 21q8 0 16 -4q7 29 7 49q0 32 -18 41q-10 5 -24 5q-25 0 -60 -16q-55 -25 -125 -79t-134 -114t-111 -116t-55 -86q-2 -6 -3 -19t-1 -27z " />
<glyph unicode="r" horiz-adv-x="972" d="M58 22q-4 2 1 47t15 113t26 150t34 157t39 132t41 79q14 14 28 1t28 -32t28 -34t30 -3q56 78 123 149t149 123q8 6 44 19t82 26t95 22q44 8 77 8h7q35 -1 48 -18t-13 -57q-120 -2 -224 -70t-192 -168t-160 -217t-125 -217t-88 -166t-51 -66q-2 0 -18 9t-24 13z" />
<glyph unicode="s" horiz-adv-x="792" d="M57 65q23 27 74 58t119 65t131 64t111 53t62 35q66 56 69 93v6q0 33 -33 54q-36 23 -101 36t-134 24t-132 23t-95 32t-21 53t87 85q28 20 82 58t117 78t125 72t104 42q22 4 45 -4t37 -23t13 -33t-27 -32q-114 -64 -219 -120t-211 -128q-6 -16 3 -28t21 -18 q212 -22 319 -62t136 -88q13 -21 13 -44q0 -28 -20 -58q-36 -54 -107 -106t-163 -98t-177 -78t-149 -48q-39 -10 -60 -10q-13 0 -18 4q-24 16 -1 43z" />
<glyph unicode="t" d="M22 610q24 50 72 65t104 21t107 18t81 54q18 52 43 127t53 157t61 162t69 142q22 14 36 2t21 -35t9 -47t0 -32q-12 -52 -41 -111t-54 -119t-40 -120q-8 -31 -8 -60q0 -27 7 -54h430q2 0 10 -13t14 -21q10 -28 -22 -38t-86 -13t-123 -4t-132 -10t-113 -30t-68 -63 q-52 -134 -96 -269t-84 -273q-4 -6 -16 -19t-26 -22t-27 -7t-21 24q-2 4 -2 22t2 24q6 22 22 77t34 116t34 115t22 76q8 28 18 65q6 23 6 45q0 13 -2 26q-8 1 -17 1q-25 0 -57 -8q-44 -11 -87 -18q-22 -4 -41.5 -3.5t-38.5 3.5q-37 7 -53 47z" />
<glyph unicode="u" horiz-adv-x="1152" d="M46 158q-4 11 -4 26q0 25 11 61q17 57 51 125t79 141t88 136t80 108t57 59q41 -20 41 -58v-9q-5 -45 -36 -103t-80 -124t-92 -131t-69 -125q-18 -41 -18 -76q0 -16 4 -30q14 -6 31 -6q34 0 78 25q65 37 140 103t154 151t147 164t120 139t76 80q42 -20 42 -65t-23 -103 t-56 -125t-57 -133t-28 -126v-12q0 -53 32 -92l68 -80h202q14 0 6 -12t-23 -26t-31 -27t-18 -13q-31 -6 -54 -6q-17 0 -30 3q-32 7 -74 25q-54 22 -86 58t-50 82t-28 97t-18 103q-5 3 -11 3q-19 0 -53 -26q-46 -35 -106 -87t-129 -107t-133 -81q-40 -16 -75 -16q-22 0 -42 6 q-53 16 -83 104z" />
<glyph unicode="v" horiz-adv-x="1062" d="M34 240v22q0 56 8 116q10 72 24 140t28 122t20 84q10 6 21 0t22 -17t18 -20l7 -9q3 -38 3 -75q0 -31 -2 -62q-5 -67 -12 -133t-12 -134q-3 -38 -2 -76q0 -31 1 -62q8 -15 25 -16q16 0 41 15q50 29 122 94t157 154t168 177t157 165t125 118q44 35 65 35q4 0 6 -1 q9 -3 9 -20q0 -21 -15 -65q-48 -42 -114 -126t-144 -181t-162 -193t-169 -165t-165 -96q-31 -11 -61 -11q-46 0 -89 26q-42 24 -60 76t-20 118z" />
<glyph unicode="w" horiz-adv-x="1492" d="M31 77q-9 25 5 59q38 122 83 259t95 261q18 44 39 48t37 -16t22 -55q2 -12 2 -23q0 -23 -8 -46q-6 -16 -22 -57t-34 -88t-34 -89t-22 -58v-68q62 56 104 100t79 89t77 96t100 121q46 54 72 59t39 -22t15 -78q1 -34 1 -72v-38q-1 -59 -5 -118q-3 -47 -3 -84v-18 q1 -43 9 -62t30 3q24 38 70 110t104 159t127 176t141 160t144 112q58 33 112 33q13 0 26 -2q2 -8 -23 -44t-66 -85t-90 -106t-96 -109t-83 -94t-50 -62q-6 -8 -25 -35t-44 -64t-54 -79t-55 -80t-45 -66t-25 -36q-18 -26 -30 -42t-23 -22t-25 -2t-34 20q-40 30 -62 78 t-33 102t-15 108t-4 96q-4 4 -11 4t-11 -4q-50 -36 -96 -86t-91 -102t-88 -103t-87 -93q-28 -10 -58 -5t-51 20t-30 40z" />
<glyph unicode="x" horiz-adv-x="1006" d="M36 46q-7 11 -7 24q0 18 15 40q26 36 76 77t113 85t117 88t88 85q28 33 28 62q0 7 -2 13q-2 8 -12 45t-22 79t-22 78t-12 46v46q26 20 51 -12t48 -81t44 -97t37 -60q36 24 77 57t81 68t76 68t60 57q42 22 59 19t17 -21t-11 -44t-25 -51t-27 -43l-13 -18 q-106 -96 -162 -163t-77 -113q-16 -36 -16 -61q0 -7 1 -13q6 -28 27 -47t49 -33t49 -31t28 -41q2 -6 2 -14q0 -21 -15 -50q-23 -6 -41 -6q-25 0 -43 11q-30 19 -50 53t-33 74t-32 69t-50 38q-8 2 -16 2q-28 0 -69 -21q-54 -28 -137 -101t-205 -209q-6 4 -23 22t-21 24z" />
<glyph unicode="y" horiz-adv-x="882" d="M-340 -768q-9 14 -9 35q0 22 10 52q19 59 54 122t72 118t55 79q16 22 49 66l75 100t89 118t89 117t76 99t50 66q16 18 0 56t-49 89t-74 112t-74 124t-50 125q-9 32 -9 62q0 28 8 54q22 16 48 -19t55 -96t61 -134t62 -132t59 -93q18 -21 35 -21q10 0 20 7q52 38 102 97 t96 123t87 125t77 107q14 18 27 25t41 -3q9 -3 9 -16q0 -18 -17 -54q-30 -62 -94 -160t-153 -223t-188 -260t-198 -269t-182 -249t-142 -202t-77 -127q-8 -18 -17 -36t-25 -30q-4 2 -11 8t-14 13l-14 14t-9 11z" />
<glyph unicode="z" horiz-adv-x="1132" d="M53 84q11 40 57 91t117 110t154 123t169 129t161 127t130 118t75 100q-4 26 -40 29q-11 1 -23 1q-28 0 -63 -5q-50 -7 -106 -19t-100 -13h-5q-40 0 -62 14q-14 9 -14 30q0 12 5 29q2 4 43 17t103 27t134 24q65 9 123 9h11q62 -1 105 -19t46 -60v-5q0 -41 -43 -107 q-46 -70 -160 -178q-6 -8 -33 -32t-60 -53t-64 -56t-45 -39t-50 -39t-81 -62t-93 -73t-86 -72t-60 -59t-14 -35q40 -4 79 -4q45 0 90 5q85 9 169 21t169 21q45 5 90 5q40 0 81 -4q20 -12 39 -37t5 -53q-52 -4 -129 -17t-166 -29t-183 -31t-179 -21q-46 -3 -89 -3 q-35 0 -67 2q-71 5 -113 31q-29 17 -29 45q0 8 2 17z" />
<glyph unicode="{" horiz-adv-x="542" d="M33 276q-3 80 51 148q6 8 29 35t50 57t50 56t29 32q24 30 25 52t-11 39t-32 30t-36 28t-22 33t8 44q2 6 16 22t30 35t30 36t16 21q22 52 10 103t-36 102t-45 101t-16 99t48 94t151 89q24 8 41 -13t25 -33q-18 -22 -56 -47t-72 -55t-53 -67t3 -81l112 -224q0 -2 -3 -32 t-5 -72t-1 -88t9 -80q14 -56 5 -96t-31 -70t-53 -54t-60 -50t-54 -58t-33 -78q-20 -100 4 -162t75 -102t121 -67t140 -55q38 -16 35 -32t-34 -25t-81 -7t-102 22q-66 24 -131 83t-104 133t-42 154z" />
<glyph unicode="|" horiz-adv-x="226" d="M44 294q0 72 1 136t1 90q0 16 2 64t4 114t5 139t5 138t4 113t2 64q0 4 3 25t8 47t12 54t17 44t23 16t27 -28q6 -160 2 -321t-10 -322l-12 -322t-2 -323q-14 -26 -33 -23t-35 23q-4 4 -12 22t-10 24q0 26 -1 90t-1 136z" />
<glyph unicode="}" horiz-adv-x="600" d="M20 1604h64q6 0 35 -26t65 -62t72 -75t56 -63q50 -64 63 -118t1 -106t-42 -102t-66 -104q-6 -10 -15 -27t-9 -19l112 -114q26 -26 18 -43t-26 -31t-33 -28t-3 -32q24 -36 59 -73t70 -77t63 -82t34 -86q8 -52 -14 -119t-62 -132t-91 -121t-99 -89t-87 -34t-53 45 q-6 16 18 40t63 53t85 65t83 78t57 91t10 103q-8 44 -36 81t-63 71t-70 67t-60 68t-33 75t12 90q-44 92 -55 138t-1 67t35 30t50 26t44 53t19 114q0 40 -23 78t-57 72t-72 67t-68 65t-46 63t-4 63z" />
<glyph unicode="~" horiz-adv-x="1062" d="M69 61q-9 27 2 75t38 107t64 110t79 84t83 30t78 -53t63 -164q18 -86 51 -118t76 -30t93 32t104 68t110 77t108 61q12 -18 -11 -56t-68 -81t-105 -85t-122 -71t-119 -39t-95 14q-54 32 -79 89t-39 111t-24 91t-35 29t-73 -75t-134 -221q-36 -12 -45 15z" />
<glyph unicode="&#xa1;" horiz-adv-x="532" d="M29 1260q13 -25 37 -42t47.5 -18t31.5 26t1 55.5t-24 46.5t-40.5 16.5t-49.5 -37.5q-16 -22 -3 -47zM145 800q-4 -11 4 -54t24 -105t40 -137.5t51.5 -151t57.5 -145.5t59 -122.5t55.5 -79.5t48.5 -18q2 9 -7 60.5t-27 126t-42.5 164.5t-51.5 176t-57 160.5t-57.5 119.5 t-53.5 50.5t-44 -44.5z" />
<glyph unicode="&#xa2;" horiz-adv-x="1118" d="M51 291q15 91 69 192t128 193t156 166t155 112t125 30t64 -80q6 -32 -7 -70t-36 -73t-52 -64t-56 -43t-48 -10t-27 34q24 40 54 81t58 77q-12 22 -46 10t-82 -48t-101 -91t-103 -119t-89 -133t-57 -133t-9 -119t57 -89q66 -6 152 13t176 49t179 65t162 65t124 47t67 9 q38 -20 5 -58t-111 -82t-185 -87t-215 -74t-204 -44t-150 5q-102 34 -135 106t-18 163zM378 478q0 16 4 67t8 120t10 148t10 148t8 120t4 67q0 4 3 25t8 47t13 54t18 44t23 16t27 -28q-22 -162 -39 -339t-19 -358t14 -359t60 -338q-16 -28 -34 -25t-34 25q-4 4 -13 21 t-11 23q0 16 -5 57t-12 94t-15 111t-15 110t-11 93t-2 57z" />
<glyph unicode="&#xa3;" horiz-adv-x="664" d="M-24 582q4 8 30 14t66 10q16 106 45 208t68 189t89 153t109 100t124 30t137 -56l-58 -106q-74 72 -140 50t-121 -103t-98 -204t-69 -255q60 2 125 0t122 -9t99 -20t58 -33q-20 0 -72 -3t-109 -7t-109 -7t-72 -3q-16 2 -29 3t-27 3q-14 -74 -21 -143t-8 -128t4 -105 t17 -70q22 10 86 25t151 18t190 -15t205 -74q26 -14 -8 -15t-102 4t-156 13t-169 10t-143 -5t-76 -29q-46 96 -57 235t7 291q-52 8 -72 17t-16 17z" />
<glyph unicode="&#xa4;" horiz-adv-x="1188" d="M107 36q1 14 33 56l120 132q-32 6 -35 60t15 125t52 141t80 110q-28 36 -68 69t-75 69t-57 76t-14 90q36 2 76 -27t76 -71t64 -88t38 -80q30 52 83 81t110 38t111 -3t90 -42q120 84 193 122t105 43t28 -17t-40 -56t-100 -73t-148 -69q14 -36 12 -78t-17 -87t-40 -90 t-55 -87q34 -18 70 -54t65 -77t48 -80t21 -63t-16 -25t-62 33q-18 30 -45 56t-53 50t-48 49t-32 55q-18 -36 -61 -63t-95 -43t-104 -21t-88 5q-18 -20 -48 -47t-63 -54t-63 -47t-47 -26t-16 8zM294 298q2 -12 10 -20t16 -12t15 -6t9 -4q36 -22 88 -11t107 44t108 81t93 102 t61 106t11 92t-56 62t-138 16q-12 2 -43 -17t-70 -54t-81 -80t-74 -96t-49 -103t-7 -100z" />
<glyph unicode="&#xa5;" horiz-adv-x="804" d="M36 282q-14 20 28 38t108 32t139 23t121 15q4 20 9 38t9 38q-54 -4 -105 -5t-93 2t-69 11t-33 22q10 20 41 36t74 28t96 20t107 10q2 20 3 40t1 40q-8 18 -36 61t-66 100l-82 123t-85 129t-74 120t-49 95t-10 53t42 -3q28 -26 70 -83t87 -128t92 -146t87 -134t70 -94 t44 -25q20 40 59 127t85 190t95 206t92 175t76 97t45 -27q-22 -36 -63 -126t-94 -216t-113 -277t-116 -307q100 -12 132 -60q-10 -10 -55 -20t-111 -20q-8 -22 -14 -42t-14 -42h214q12 -6 21 -19t3 -29q-54 -6 -123 -17t-143 -23q-58 -188 -92 -343t-24 -249q-6 -20 -19 -39 t-29 -26t-33 2t-31 43q-24 56 -22 124t19 143t44 156t53 165q-86 -16 -159 -29t-119 -19q-36 -6 -51 3t-39 43z" />
<glyph unicode="&#xa6;" horiz-adv-x="226" d="M44 294q0 72 1 136t1 90q0 12 1 20t3 25t3 47t3 86l104 6q-4 -102 -8 -183t-8 -158t-7 -158t-1 -183q-14 -26 -33 -23t-35 23q-4 4 -12 22t-10 24q0 26 -1 90t-1 136zM56 806q2 52 4 108t4 105t3 85t1 48q0 4 3 25t8 47t12 54t17 44t23 16t27 -28q4 -116 3 -247t-5 -249z " />
<glyph unicode="&#xa7;" horiz-adv-x="1208" d="M148 38q-24 16 0 42t75 58t119 66t131 64t111 53t60 33q46 38 61 68t8 51t-35 36t-66 25l-188 10q-66 10 -123 26t-85 42t-16 62t84 86q26 18 73 51t103 69t113 68t103 50q-72 12 -139 23t-103 32t-27 54t87 87q28 20 83 58t118 78t125 72t104 42q20 4 44 -4t38 -23 t13 -32t-27 -31q-114 -64 -220 -120t-210 -130q-8 -16 2 -27t22 -17q192 -22 298 -57t144 -78t20 -91t-72 -96t-132 -93t-160 -81q100 -34 133 -76t19 -87t-67 -93t-125 -91t-154 -79t-153 -62t-123 -36t-66 -2zM352 670q-10 -22 7 -33t42 -17t52 -8t39 -4q52 28 111 57 t112 53t91 42t50 28q64 56 70 89t-18 47t-63 11t-65 -17q-112 -62 -217 -119t-211 -129z" />
<glyph unicode="&#xa8;" horiz-adv-x="956" d="M205 936q13 42 45 65t70 18t60 -55q12 -30 -4 -63t-44 -54t-60 -23t-52 28q-28 42 -15 84zM492 946q14 42 46 65t70 18t58 -55q12 -30 -4 -63t-44 -54t-59 -23t-51 28q-30 42 -16 84z" />
<glyph unicode="&#xa9;" horiz-adv-x="1364" d="M16 489q6 139 56 287t131 282t190 242t233 167t259 57t271 -90q102 -62 140 -170t26 -242t-67 -279t-141 -279t-196 -245t-231 -176t-246 -70t-243 71q-102 72 -145 189t-37 256zM112 334q18 -122 116 -210q86 -64 184 -57t196 63t189 150t167 206q-60 -28 -131 -54 t-140 -43t-128 -23t-93 6q-74 26 -99 79t-13 120t51 142t93 144t115 124t114 83t91 23t48 -59q6 -36 -16 -80t-53 -75t-61 -40t-38 27q20 30 41 59t43 57q-10 22 -51 0t-91 -70t-101 -114t-83 -133t-34 -127t44 -94q58 -4 136 16t157 49t152 60t121 49q44 78 76 156t49 150 t17 134t-18 110q-30 138 -108 186t-180 29t-217 -95t-219 -186t-186 -243t-120 -265t-20 -254z" />
<glyph unicode="&#xaa;" horiz-adv-x="858" d="M37 469q-3 47 13.5 106t48.5 123.5t75 123t92.5 105t99.5 69t97.5 16t86.5 -55.5q24 -30 29 -60.5t-1 -62.5t-19.5 -65.5t-26 -67t-20.5 -68.5t-3 -71q6 -46 41 -54.5t84.5 4.5t104.5 42t101.5 58t77.5 51l31 22q34 7 38.5 -4.5t-13 -34t-53 -50.5t-80.5 -54.5t-96 -48.5 t-100 -30t-92 1.5t-71 42.5q-13 15 -20 29.5t-21 25.5q-19 -17 -44.5 -44.5t-55 -54.5t-63 -51t-69 -36t-71.5 -8.5t-69 31.5q-29 24 -32 71zM83 439q11 -39 48.5 -36t87.5 37t103.5 92.5t96 130t65 151.5t11.5 157q-29 23 -73 1.5t-93 -69t-97 -113t-84.5 -132.5 t-55.5 -126t-9 -93z" />
<glyph unicode="&#xab;" horiz-adv-x="1364" d="M25 655q3 33 43 69q18 16 55 49t84 76t99 89t98 89t83 76t55 49q10 4 28 0t33 -13t20 -23t-11 -32l-430 -428q-22 -22 4 -58t68 -72t83 -64t49 -34q26 -18 93 -63t143 -95t143 -95t95 -61q20 -26 24 -51t-7 -41t-33 -18t-52 18q-162 108 -326 215t-308 239q-32 28 -65 57 t-52 59t-16 63zM425 708q3 32 43 68q18 16 55 50t83 77t98 89t98 89t83 76t55 49q10 4 28 0t33 -13t20 -23t-11 -30l-430 -432q-14 -14 -6 -35t29 -45t50 -48t56 -44t48 -35t25 -17q18 -12 55 -37t83 -57t98 -67t99 -66t84 -55t55 -36q20 -26 24 -51t-6 -40t-32 -17t-54 18 q-160 108 -324 215t-308 239q-32 28 -65 57t-51 59t-15 62z" />
<glyph unicode="&#xac;" horiz-adv-x="1030" d="M146 676q-12 16 41 37t139 38t190 26t196 3t156 -30t70 -74l2 -346q-22 -42 -44 -24t-40 71t-27 128t-5 149q-30 2 -86 -5t-124 -14t-142 -13t-140 -4t-116 15t-70 43z" />
<glyph unicode="&#xad;" horiz-adv-x="996" d="M58 564q-26 26 3 50t92 44t151 34t182 22t183 7t156 -13t100 -36t15 -62q-22 0 -73 -3t-109 -7t-110 -7t-72 -5q-50 -4 -122 -23t-147 -32t-143 -11t-106 42z" />
<glyph unicode="&#xae;" horiz-adv-x="1364" d="M16 489q6 139 56 287t131 282t190 242t233 167t259 57t271 -90q102 -62 140 -170t26 -242t-67 -279t-141 -279t-196 -245t-231 -176t-246 -70t-243 71q-102 72 -145 189t-37 256zM112 334q18 -122 116 -210q80 -58 167 -57t176 43t174 119t159 173t133 204t95 210t46 193 t-16 153q-30 138 -108 186t-180 29t-217 -95t-219 -186t-186 -243t-120 -265t-20 -254zM272 318q-8 20 11 67t52 108t73 127t74 123t56 97t18 50q-12 4 -26 -2t-27 -12t-26 -7t-23 11t3 23t19 15q164 106 302 149t228 39t121 -48t-19 -113t-192 -157t-398 -178 q-8 -16 30 -40t95 -50t120 -55t104 -56t47 -51t-50 -40q-2 0 -30 12t-62 29t-64 31t-32 16q-84 62 -141 75t-94 -3t-59 -49t-39 -63t-33 -47t-38 -1zM524 706q168 44 269 94t149 96t50 83t-27 56t-81 15t-115 -40t-128 -110t-117 -194z" />
<glyph unicode="&#xb0;" horiz-adv-x="656" d="M69 905q-13 35 0 75t44 82t70 78t79 59t70 27q100 12 144 -19t45 -81t-33 -110t-89 -105t-126 -66t-141 5q-50 20 -63 55zM146 940q10 -38 39 -46t67 4t78 39t72 59t51 66t14 59t-40 37t-109 2q-26 -22 -60 -41t-63 -43t-45 -56t-4 -80z" />
<glyph unicode="&#xb1;" horiz-adv-x="760" d="M44 454q4 4 22 13t24 9q12 2 44 9t68 15t69 14t45 10l44 314q2 12 13 19t23 7t22 -6t10 -20v-292q12 0 41 -3t62 -7t61 -7t40 -5l22 -11t22 -13q-22 -34 -57 -45t-73 -16t-71 -13t-47 -38q-26 -52 -16 -105t16 -103q66 8 125 11t95 -4t42 -25t-32 -50q-108 -12 -195 -33 t-158 -32t-124 -6t-91 43q-8 8 11 18t56 22t87 23t104 21q-16 58 -21 119t-11 111h-226z" />
<glyph unicode="&#xb2;" horiz-adv-x="618" d="M30.5 296.5q2.5 9.5 10.5 18.5q38 35 75.5 67.5t72 66t65.5 70t55 78.5q13 22 10.5 33t-15 14t-31 -1t-38.5 -9.5t-39 -12t-30 -9.5t-13 -1t11 13q18 16 44 28.5t53 18.5t51.5 4.5t39.5 -12t16.5 -31t-16.5 -52.5q-20 -38 -52 -70.5t-65.5 -63.5t-65 -63t-50.5 -68 q16 -4 49 3t74.5 18.5t86 24t85.5 19.5t72.5 5.5t45.5 -17.5q2 -2 2 -9.5t-2 -8.5q-30 4 -71.5 -3.5t-88 -20t-95.5 -27t-93 -24t-81.5 -10t-61.5 13.5q-13 8 -10.5 17.5z" />
<glyph unicode="&#xb3;" horiz-adv-x="452" d="M18 422.5q-1 4.5 0.5 9t7.5 7.5q9 3 18.5 1.5t19.5 -5l20 -7t19 -2.5q16 2 46 21.5t64 48t66.5 62.5t52.5 67.5t21.5 60.5t-26.5 43q-13 4 -35.5 -3t-46.5 -17.5t-48.5 -20.5t-43 -12.5t-28 6t-4.5 35.5q10 16 27 41.5t35 55t34 60.5t24 60l-12 -4q-11 -5 -28.5 -10.5 t-36 -10t-33 -4.5t-21 6.5t1.5 22.5q2 3 16 15.5t35 26.5t45 27t45 18.5t34.5 0t14.5 -28t-14.5 -65.5t-54.5 -114v-36q61 6 95 -8.5t47 -43t6.5 -66t-28.5 -77t-56 -77.5t-76 -66t-90 -42.5t-96 -7.5q-2 1 -5 5.5t-4 7.5q-2 4 -4.5 9.5t-3.5 10z" />
<glyph unicode="&#xb4;" horiz-adv-x="466" d="M53 841q3 29 30 75t68 90t91 74t98 28q12 -60 -1 -88t-40 -47t-63 -42t-66 -71q-66 -48 -93 -48t-24 29z" />
<glyph unicode="&#xb5;" horiz-adv-x="802" d="M46 755q-2 47 30 69q18 -20 59 -82t95 -141t115 -165t120 -153t110 -104t85 -19q10 46 -10 107t-54 127t-72 133t-62 125t-28 104t32 68q14 -14 43 -60t63 -109t69 -137t61 -143t40 -127t6 -88q-22 -90 -64 -106t-92 10t-103 81t-101 108t-84 88t-50 23q-6 -34 15 -99 t53 -142t68 -160t60 -154t29 -122t-23 -65l-62 -6q-32 180 -77 333t-92 280t-88 228t-65 176t-26 122z" />
<glyph unicode="&#xb6;" horiz-adv-x="1118" d="M160 772q-8 116 74 186t215 93t296 0t315 -89q-12 -28 -43 -95t-74 -156t-94 -192t-106 -202t-109 -186t-103 -145t-87 -78t-62 16q-2 2 -2 9t2 11q12 24 44 82t68 122t68 122t46 82q20 38 39 70t44 82t64 130t103 214q-94 -10 -140 8q-20 -58 -64 -157t-99 -210 t-115 -222t-114 -195t-95 -128t-59 -20q-6 34 5 77t30 88t40 87l37 74q12 22 40 80t61 125t61 130t40 93q-52 18 -107 9t-102 -12t-79 13t-38 84z" />
<glyph unicode="&#xb7;" horiz-adv-x="644" d="M286 518q0 42 18 77t47 58t61 28t62 -14t48 -67q16 -44 -5 -91t-58 -77t-79 -34t-68 38q-26 40 -26 82z" />
<glyph unicode="&#xb8;" horiz-adv-x="484" d="M104 -316q-10 28 19 39t70 17t81 15t52 33q12 26 4 37t-28 17t-45 8t-47 8t-36 19t-10 39q-8 44 -6 82t11 54t24 1t33 -75q12 -38 54 -52t83 -24t67 -28t8 -62q-4 -16 -38 -50t-82 -64t-101 -44t-91 8q-4 2 -12 10t-10 12z" />
<glyph unicode="&#xb9;" horiz-adv-x="396" d="M8 377.5q3 29.5 15.5 61.5t28 59t22.5 39q4 9 17 35.5t31.5 62.5t38 76t37.5 76t31 62.5t18 35.5q2 7 7 22.5t12 32t15.5 32t19.5 22.5t25 4t31 -24q1 -1 -10.5 -29t-32 -74t-46.5 -104.5t-53.5 -119.5t-55 -120t-49 -105t-36 -74.5t-17.5 -29.5t-15 3.5t-16 9.5 q-21 17 -18 46.5z" />
<glyph unicode="&#xba;" horiz-adv-x="656" d="M69 905q-13 35 0 75t44 82t70 78t79 59t70 27q100 12 144 -19t45 -81t-33 -110t-89 -105t-126 -66t-141 5q-50 20 -63 55zM146 940q10 -38 39 -46t67 4t78 39t72 59t51 66t14 59t-40 37t-109 2q-26 -22 -60 -41t-63 -43t-45 -56t-4 -80z" />
<glyph unicode="&#xbb;" horiz-adv-x="1178" d="M56 1108q2 8 19 25t25 19q42 -32 109 -75t137 -92t134 -104t102 -114t41 -122t-49 -125q-16 -20 -46 -57t-67 -81t-76 -90t-74 -87t-61 -72t-36 -43q-4 -6 -17 -19l-27 -27l-27 -27t-19 -17q-6 4 -24 21t-22 25q-20 38 8 86t80 102t116 112t118 115t87 112t21 105 q-2 4 -38 33t-87 71t-111 91t-109 95t-80 84t-27 56zM492 1118q0 10 18 27t28 19q42 -34 108 -76t136 -91t134 -105t103 -115t42 -121t-49 -124q-16 -20 -47 -56t-67 -80t-76 -92t-74 -89t-60 -72t-36 -43q-6 -6 -19 -18t-28 -26t-28 -27t-19 -17q-6 4 -22 21t-20 25 q-20 38 7 86t79 102t117 111t119 115t86 113t20 105q-2 4 -37 33t-87 70t-111 90t-109 95t-81 84t-27 56z" />
<glyph unicode="&#xbc;" horiz-adv-x="1348" d="M64.5 377.5q2.5 25.5 13.5 53t24.5 51t19.5 33.5l15.5 31t27.5 54t33.5 65.5t33.5 65.5t27.5 54.5t15.5 30.5l6.5 19.5t10.5 28t13.5 27.5t17.5 19.5t22 3.5t27 -21q1 -1 -9 -25t-28 -64t-41 -90.5t-47.5 -103.5t-48.5 -103.5t-43 -90.5t-32 -64.5t-16 -25.5 q-2 -1 -12.5 3t-14.5 8q-18 15 -15.5 40.5zM256 62q-10 75 5.5 180.5t48.5 224.5t77 245.5t91 244.5t90.5 221.5t75.5 176.5q19 14 30.5 6t18 -24.5t8 -37.5t-0.5 -33q-10 -25 -33.5 -88t-50 -134t-50 -134.5t-31.5 -88.5q-9 -20 -24.5 -68.5t-33.5 -101.5t-33.5 -100.5 t-20.5 -64.5q-8 -28 -19.5 -84t-26.5 -120.5t-31 -124.5t-34 -95q-5 -6 -13.5 -13t-16.5 -10t-16.5 2t-9.5 21zM351.5 320q2.5 24 17.5 51.5t37 57.5t44.5 59t42 56t28.5 50q27 6 39 1t14 -17t-4.5 -27.5t-16 -31.5t-18.5 -30t-14 -22q-6 -7 -18.5 -27t-27.5 -41.5t-28 -41 t-18 -26.5v-22q28 -3 59.5 1.5t62.5 11.5t60.5 15.5t53.5 13.5q57 13 91.5 39.5t57.5 61.5t39 77t37 87q27 6 34 -6.5t2.5 -36t-18 -53.5t-27 -58t-23.5 -50t-9 -29q20 6 39.5 0.5t27.5 -21.5q-7 -13 -23 -17.5t-33.5 -8t-34 -9t-27.5 -18.5q-24 -31 -41.5 -64.5t-31.5 -69 t-24.5 -71.5t-21.5 -70q-8 -2 -22.5 -0.5t-16.5 12.5q-8 31 4.5 63.5t29 64t28.5 63t3 62.5q-23 3 -53.5 -3t-62.5 -15.5t-64.5 -19t-63 -12.5t-55.5 2.5t-42 25.5q-15 19 -12.5 43z" />
<glyph unicode="&#xbd;" horiz-adv-x="1138" d="M4 378q2 27 11 56t20 53.5t16 35.5q3 8 12.5 32.5t22.5 57t27 68.5t27 69t22 57t12 33q2 6 5.5 20t8.5 29t11 29t14 20.5t18 3.5t22 -22q1 -1 -7.5 -26t-23 -67t-33 -95.5t-38 -109t-39 -108.5t-35 -95t-26 -68t-12.5 -27t-10.5 3t-11.5 8q-15 16 -13 43zM130 14 q-9 77 5.5 185.5t46 231.5t73.5 252.5t86.5 251.5t86 228.5t73.5 181.5q17 14 28 6t17 -25.5t7.5 -38.5t0.5 -33q-10 -27 -32.5 -92t-47.5 -138t-47.5 -137.5t-30.5 -91.5q-8 -20 -23 -69.5t-32 -104.5t-32 -103.5t-19 -67.5q-8 -28 -19 -86t-25 -123.5t-30 -127.5t-33 -99 q-5 -6 -12.5 -13t-15.5 -10t-15.5 2t-9.5 21zM301.5 115.5q2.5 12.5 13.5 23.5q43 47 86 90t82.5 88t75 93.5t64.5 104.5q14 29 11.5 43.5t-17 18t-36 -1t-44.5 -12.5t-44.5 -16t-34.5 -12.5t-15.5 -1.5t13.5 17q21 22 51 38.5t61 24.5t58.5 6t45.5 -16t19.5 -41t-18.5 -70 q-24 -50 -61 -93t-75.5 -85t-74.5 -84t-58 -91q18 -5 56 4.5t85.5 25t99 32t98.5 26t83.5 7.5t52.5 -24q2 -2 2 -12t-2 -12q-34 5 -81.5 -4.5t-101.5 -26.5t-110 -36t-107 -31.5t-94 -13.5t-70 17q-16 12 -13.5 24.5z" />
<glyph unicode="&#xbe;" horiz-adv-x="1348" d="M20 415q-1 5 0.5 10t8.5 8q10 4 20.5 2t22.5 -6t23 -7.5t21 -2.5q19 2 53 23.5t72.5 52.5t75.5 69t59.5 74.5t24 66.5t-29.5 47q-16 4 -41 -3.5t-52.5 -19t-55.5 -22.5t-48.5 -14t-31.5 6.5t-6 38.5q12 18 31.5 46.5t39.5 60.5t38.5 66.5t27.5 65.5l-13 -4 q-14 -5 -33.5 -11.5t-40.5 -11t-37.5 -4.5t-24 7t2.5 24q2 4 18 17.5t39.5 29t51 30t51 20.5t39 0t16.5 -30.5t-16.5 -72.5t-61.5 -125v-41q69 8 108 -8t53 -47.5t7 -72.5t-32 -84.5t-63.5 -85.5t-86.5 -72.5t-102 -46.5t-109 -9q-2 1 -5.5 6.5t-4.5 7.5q-3 5 -5.5 11 t-3.5 11zM277 35q-8 77 5 186.5t40.5 233.5t64 255t75.5 254t75 230.5t63 182.5q15 15 24.5 6.5t15 -25.5t7 -38.5t0.5 -34.5q-9 -26 -28.5 -91.5t-41.5 -139.5t-41.5 -139.5t-26.5 -91.5q-7 -21 -20 -71t-28 -105.5t-28 -104.5t-17 -67q-7 -29 -16.5 -87.5t-21.5 -125 t-25.5 -129t-28.5 -98.5q-4 -7 -11 -14t-14 -10t-13.5 2t-8.5 22zM378.5 387q2.5 30 16.5 64.5t35 72t42.5 74t40 70.5t27.5 63q25 7 37 0.5t13.5 -21t-4.5 -34.5t-15 -40t-18 -37.5t-13 -26.5q-6 -10 -18 -34.5t-26 -51.5t-26.5 -51.5t-17.5 -33.5v-27q27 -4 57 1.5 t59.5 14t57.5 19t52 17.5q54 17 86.5 49.5t54.5 76.5t37.5 97t35.5 109q25 8 32 -7.5t2.5 -45t-17.5 -67.5t-25.5 -73t-22 -63t-8.5 -36q19 7 37 0.5t26 -26.5q-7 -16 -21.5 -22t-31.5 -10.5t-33 -11t-26 -22.5q-23 -39 -40 -81.5t-30 -87t-23 -89.5t-20 -87q-8 -2 -22 -0.5 t-16 14.5q-8 40 4.5 80.5t28 80t27 79t2.5 78.5q-22 3 -51 -4.5t-59.5 -19t-61.5 -23.5t-59.5 -16t-52.5 3t-41 33q-14 23 -11.5 53z" />
<glyph unicode="&#xbf;" horiz-adv-x="812" d="M-211.5 132q-5.5 49 19.5 97q47 91 108 157.5t123 130t118.5 136.5t93.5 176q3 7 8 13t10.5 8t10 -2.5t6.5 -18.5q7 -44 -19.5 -102.5t-71 -123t-99.5 -131.5t-105.5 -130.5t-89 -119t-50 -97.5t12 -66t96.5 -24h280q8 -28 1.5 -53t-25.5 -25h-291q-26 0 -57 24t-52.5 63 t-27 88zM244 1259.5q1 21.5 7.5 25t19.5 -31.5q9 -19 13.5 -37.5t-0.5 -41.5q-7 -37 -15 -37t-14 19.5t-9 50.5t-2 52.5z" />
<glyph unicode="&#xc0;" horiz-adv-x="1694" d="M-203 -292q1 12 23 12q42 -58 118 -44t164 69t179 138t164 165t120 148t47 88q0 6 -16 19t-37 27l-39 26t-22 18q6 20 38 31t72 20t79 18t59 23q106 154 185 277t150 242t145 245t170 284q26 44 42 30t24 -68t10 -137t0 -179t-7 -196t-10 -184t-8 -145t-1 -79 q8 -102 11 -177t19 -138t55 -122t119 -129q-66 -22 -109 3t-70 76t-44 118t-32 130t-34 110t-51 61q-2 0 -11 1t-20 1t-21 -1t-14 -1q-18 -4 -67 -16t-107 -26t-111 -28t-77 -20q-50 -14 -105 -64t-116 -121t-126 -155t-133 -164t-138 -148t-140 -110t-141 -47t-139 41 q-6 4 -19 19t-21 31t-7 28zM928 510q4 -2 21 -2t23 2q36 6 90 14t108 19t100 26t64 33l6 42t14 107t17 144t17 155t13 141t7 101q-22 10 -58 -51t-93 -167t-138 -247t-191 -293v-24zM1367 1708q-11 26 1 86q44 4 88 -26t81 -72t60 -87t25 -72t-24 -26t-86 51q-28 48 -58 68 t-53 36t-34 42z" />
<glyph unicode="&#xc1;" horiz-adv-x="1694" d="M-203 -292q1 12 23 12q42 -58 118 -44t164 69t179 138t164 165t120 148t47 88q0 6 -16 19t-37 27l-39 26t-22 18q6 20 38 31t72 20t79 18t59 23q106 154 185 277t150 242t145 245t170 284q26 44 42 30t24 -68t10 -137t0 -179t-7 -196t-10 -184t-8 -145t-1 -79 q8 -102 11 -177t19 -138t55 -122t119 -129q-66 -22 -109 3t-70 76t-44 118t-32 130t-34 110t-51 61q-2 0 -11 1t-20 1t-21 -1t-14 -1q-18 -4 -67 -16t-107 -26t-111 -28t-77 -20q-50 -14 -105 -64t-116 -121t-126 -155t-133 -164t-138 -148t-140 -110t-141 -47t-139 41 q-6 4 -19 19t-21 31t-7 28zM928 510q4 -2 21 -2t23 2q36 6 90 14t108 19t100 26t64 33l6 42t14 107t17 144t17 155t13 141t7 101q-22 10 -58 -51t-93 -167t-138 -247t-191 -293v-24zM1213 1479q3 29 30 75t68 90t91 74t98 28q12 -60 -1 -88t-40 -47t-63 -42t-66 -71 q-66 -48 -93 -48t-24 29z" />
<glyph unicode="&#xc2;" horiz-adv-x="1694" d="M-203 -292q1 12 23 12q42 -58 118 -44t164 69t179 138t164 165t120 148t47 88q0 6 -16 19t-37 27l-39 26t-22 18q6 20 38 31t72 20t79 18t59 23q106 154 185 277t150 242t145 245t170 284q26 44 42 30t24 -68t10 -137t0 -179t-7 -196t-10 -184t-8 -145t-1 -79 q8 -102 11 -177t19 -138t55 -122t119 -129q-66 -22 -109 3t-70 76t-44 118t-32 130t-34 110t-51 61q-2 0 -11 1t-20 1t-21 -1t-14 -1q-18 -4 -67 -16t-107 -26t-111 -28t-77 -20q-50 -14 -105 -64t-116 -121t-126 -155t-133 -164t-138 -148t-140 -110t-141 -47t-139 41 q-6 4 -19 19t-21 31t-7 28zM928 510q4 -2 21 -2t23 2q36 6 90 14t108 19t100 26t64 33l6 42t14 107t17 144t17 155t13 141t7 101q-22 10 -58 -51t-93 -167t-138 -247t-191 -293v-24zM1152 1518q10 18 36 39t54 42t53 42t35 39q44 94 81 129t66 29t50 -44t33 -87t17 -100 t0 -85t-19 -41t-36 31q-4 6 -15 37t-25 64t-29 53t-29 6q-8 -12 -33 -54t-61 -82t-76 -63t-78 1q-10 6 -21 17t-3 27z" />
<glyph unicode="&#xc3;" horiz-adv-x="1694" d="M-203 -292q1 12 23 12q42 -58 118 -44t164 69t179 138t164 165t120 148t47 88q0 6 -16 19t-37 27l-39 26t-22 18q6 20 38 31t72 20t79 18t59 23q106 154 185 277t150 242t145 245t170 284q26 44 42 30t24 -68t10 -137t0 -179t-7 -196t-10 -184t-8 -145t-1 -79 q8 -102 11 -177t19 -138t55 -122t119 -129q-66 -22 -109 3t-70 76t-44 118t-32 130t-34 110t-51 61q-2 0 -11 1t-20 1t-21 -1t-14 -1q-18 -4 -67 -16t-107 -26t-111 -28t-77 -20q-50 -14 -105 -64t-116 -121t-126 -155t-133 -164t-138 -148t-140 -110t-141 -47t-139 41 q-6 4 -19 19t-21 31t-7 28zM928 510q4 -2 21 -2t23 2q36 6 90 14t108 19t100 26t64 33l6 42t14 107t17 144t17 155t13 141t7 101q-22 10 -58 -51t-93 -167t-138 -247t-191 -293v-24zM1150 1447q6 33 29 79t57 90t77 77t88 41t90 -18t83 -100q18 -86 51 -118t76 -29t93 32 t104 67t110 77t108 61q12 -20 -12 -57t-69 -80t-104 -85t-121 -71t-119 -38t-95 15q-58 10 -87 47t-46 78t-29 73t-35 32t-67 -46t-122 -160q-40 -24 -53 -12t-7 45z" />
<glyph unicode="&#xc4;" horiz-adv-x="1694" d="M-203 -292q1 12 23 12q42 -58 118 -44t164 69t179 138t164 165t120 148t47 88q0 6 -16 19t-37 27l-39 26t-22 18q6 20 38 31t72 20t79 18t59 23q106 154 185 277t150 242t145 245t170 284q26 44 42 30t24 -68t10 -137t0 -179t-7 -196t-10 -184t-8 -145t-1 -79 q8 -102 11 -177t19 -138t55 -122t119 -129q-66 -22 -109 3t-70 76t-44 118t-32 130t-34 110t-51 61q-2 0 -11 1t-20 1t-21 -1t-14 -1q-18 -4 -67 -16t-107 -26t-111 -28t-77 -20q-50 -14 -105 -64t-116 -121t-126 -155t-133 -164t-138 -148t-140 -110t-141 -47t-139 41 q-6 4 -19 19t-21 31t-7 28zM928 510q4 -2 21 -2t23 2q36 6 90 14t108 19t100 26t64 33l6 42t14 107t17 144t17 155t13 141t7 101q-22 10 -58 -51t-93 -167t-138 -247t-191 -293v-24zM1213 1684q13 42 45 65t70 18t60 -55q12 -30 -4 -63t-44 -54t-60 -23t-52 28 q-28 42 -15 84zM1500 1694q14 42 46 65t70 18t58 -55q12 -30 -4 -63t-44 -54t-59 -23t-51 28q-30 42 -16 84z" />
<glyph unicode="&#xc5;" horiz-adv-x="1694" d="M-203 -292q1 12 23 12q42 -58 118 -44t164 69t179 138t164 165t120 148t47 88q0 6 -16 19t-37 27l-39 26t-22 18q6 20 38 31t72 20t79 18t59 23q106 154 185 277t150 242t145 245t170 284q26 44 42 30t24 -68t10 -137t0 -179t-7 -196t-10 -184t-8 -145t-1 -79 q8 -102 11 -177t19 -138t55 -122t119 -129q-66 -22 -109 3t-70 76t-44 118t-32 130t-34 110t-51 61q-2 0 -11 1t-20 1t-21 -1t-14 -1q-18 -4 -67 -16t-107 -26t-111 -28t-77 -20q-50 -14 -105 -64t-116 -121t-126 -155t-133 -164t-138 -148t-140 -110t-141 -47t-139 41 q-6 4 -19 19t-21 31t-7 28zM928 510q4 -2 21 -2t23 2q36 6 90 14t108 19t100 26t64 33l6 42t14 107t17 144t17 155t13 141t7 101q-22 10 -58 -51t-93 -167t-138 -247t-191 -293v-24zM1224 1563q-12 33 1 72t46 80t72 74t80 55t71 26q100 12 143 -17t43 -78t-35 -107 t-91 -102t-127 -63t-141 7q-50 20 -62 53zM1314 1630q10 -54 50 -58t88 19t91 61t57 72t-12 52t-116 0q-26 -22 -51 -37t-46 -30t-37 -33t-24 -46z" />
<glyph unicode="&#xc6;" horiz-adv-x="3186" d="M-389 -4q3 12 25 8q24 -50 73 -62t115 2t142 49t153 81t148 98t127 98t91 83t39 53q0 6 -13 21t-31 33l-34 34t-18 22q10 18 43 23t74 6t81 1t62 10q90 86 161 152t134 121t121 106t120 107t131 123t155 157q54 56 83 65t41 -17t8 -83t-18 -131q68 26 163 53t202 51 t220 45t217 35t192 19t147 -3t79 -29t-10 -61q-18 -4 -37 -1t-39 9t-41 11t-41 3q-96 -8 -189 -28t-185 -44t-184 -47t-188 -39q-150 -26 -228 -74t-113 -115t-43 -154t-16 -191q22 -6 83 8t140 35t166 42t165 30t136 0t78 -47q2 -4 2 -12t-2 -10q-106 -16 -219 -29 t-224 -33t-217 -53t-200 -89q-2 -2 -6 -10q-4 -14 -6 -27t-6 -23q-22 -114 -63 -239t-81 -239q60 16 125 31t121 27t95 19t49 9q170 26 327 41t327 5q14 -4 20 -16t7 -27t0 -29t-3 -20q-220 12 -434 -16t-426 -74q-24 -6 -54 -17t-63 -23t-68 -23t-67 -17q-40 -114 -55 -194 t13 -102q-46 -6 -68 17t-28 67t1 103t21 125q-14 6 -16 20q-10 10 8 22q18 72 40 137t46 129q12 48 20 90t10 75t-2 56t-18 33q-2 0 -11 2t-20 4t-21 4t-14 2q-18 0 -62 17t-95 37t-99 36t-72 14q-50 -4 -115 -42t-138 -96t-153 -128t-162 -136t-164 -120t-160 -80t-148 -18 t-128 66q-6 6 -15 22t-14 34t-2 30zM876 566q4 -2 21 -6t21 -2q36 -4 83 -26t90 -48t73 -46l30 -20l54 36q2 2 2 4q0 6 2 10q-8 14 -9 29t17 31q0 4 16 4q18 54 42 129t49 153t45 146t30 108q-8 -16 -29 -44t-79 -82t-165 -139t-289 -215z" />
<glyph unicode="&#xc7;" horiz-adv-x="1266" d="M9 335q9 101 64 216t136 231t179 226t194 202t180 160t136 100q72 44 120 43t77 -30t40 -80t10 -108t-12 -114t-28 -99t-36 -62t-37 -2q-2 16 4 49t15 75t17 86t11 81t-2 63t-23 30q-70 18 -167 -33t-202 -146t-208 -220t-187 -257t-138 -257t-61 -220t42 -146t173 -33 q114 16 211 81t188 144t181 156t188 117q36 14 57 -10t11 -58q-12 -34 -71 -90t-146 -117t-191 -122t-203 -105t-184 -64t-133 0q-122 48 -168 130t-37 183zM436 -256q-10 28 19 39t70 17t81 15t52 33q12 26 4 37t-28 17t-45 8t-47 8t-36 19t-10 39q-8 44 -6 82t11 54t24 1 t33 -75q12 -38 54 -52t83 -24t67 -28t8 -62q-4 -16 -38 -50t-82 -64t-101 -44t-91 8q-4 2 -12 10t-10 12z" />
<glyph unicode="&#xc8;" horiz-adv-x="1492" d="M36 46q-12 10 6 22q20 72 41 138t45 131t51 132t57 141q10 18 -3 37t-30 38t-24 40t15 43q2 2 15 6t29 7t29 6t17 5q6 4 23 21t21 23q32 54 61 96t54 84t45 88t36 108q6 24 -11 31t-39 13t-36 19t-2 49q8 22 77 48t175 50t238 44t264 32t252 15t204 -8t120 -38t-2 -75 q-18 -4 -37 -1t-39 9t-42 11t-42 3q-96 -8 -188 -6t-184 2t-184 -7t-184 -33q-64 -18 -114 -63t-95 -114t-90 -159t-101 -198q22 -6 83 8t140 35t167 42t165 30t135 0t78 -47q2 -4 2 -12t-2 -10q-106 -16 -219 -29t-224 -33t-217 -53t-200 -89q-76 -134 -136 -276t-106 -288 q58 20 135 39t148 35t124 26t63 12q170 26 327 41t327 5q14 -4 20 -16t8 -27t0 -29t-4 -20q-218 12 -433 -16t-427 -74q-34 -8 -83 -28t-100 -36t-98 -22t-79 16q-8 4 -14 10t-8 16zM685 1722q-11 26 1 86q44 4 88 -26t81 -72t60 -87t25 -72t-24 -26t-86 51q-28 48 -58 68 t-53 36t-34 42z" />
<glyph unicode="&#xc9;" horiz-adv-x="1492" d="M36 46q-12 10 6 22q20 72 41 138t45 131t51 132t57 141q10 18 -3 37t-30 38t-24 40t15 43q2 2 15 6t29 7t29 6t17 5q6 4 23 21t21 23q32 54 61 96t54 84t45 88t36 108q6 24 -11 31t-39 13t-36 19t-2 49q8 22 77 48t175 50t238 44t264 32t252 15t204 -8t120 -38t-2 -75 q-18 -4 -37 -1t-39 9t-42 11t-42 3q-96 -8 -188 -6t-184 2t-184 -7t-184 -33q-64 -18 -114 -63t-95 -114t-90 -159t-101 -198q22 -6 83 8t140 35t167 42t165 30t135 0t78 -47q2 -4 2 -12t-2 -10q-106 -16 -219 -29t-224 -33t-217 -53t-200 -89q-76 -134 -136 -276t-106 -288 q58 20 135 39t148 35t124 26t63 12q170 26 327 41t327 5q14 -4 20 -16t8 -27t0 -29t-4 -20q-218 12 -433 -16t-427 -74q-34 -8 -83 -28t-100 -36t-98 -22t-79 16q-8 4 -14 10t-8 16zM691 1521q3 29 30 75t68 90t91 74t98 28q12 -60 -1 -88t-40 -47t-63 -42t-66 -71 q-66 -48 -93 -48t-24 29z" />
<glyph unicode="&#xca;" horiz-adv-x="1492" d="M36 46q-12 10 6 22q20 72 41 138t45 131t51 132t57 141q10 18 -3 37t-30 38t-24 40t15 43q2 2 15 6t29 7t29 6t17 5q6 4 23 21t21 23q32 54 61 96t54 84t45 88t36 108q6 24 -11 31t-39 13t-36 19t-2 49q8 22 77 48t175 50t238 44t264 32t252 15t204 -8t120 -38t-2 -75 q-18 -4 -37 -1t-39 9t-42 11t-42 3q-96 -8 -188 -6t-184 2t-184 -7t-184 -33q-64 -18 -114 -63t-95 -114t-90 -159t-101 -198q22 -6 83 8t140 35t167 42t165 30t135 0t78 -47q2 -4 2 -12t-2 -10q-106 -16 -219 -29t-224 -33t-217 -53t-200 -89q-76 -134 -136 -276t-106 -288 q58 20 135 39t148 35t124 26t63 12q170 26 327 41t327 5q14 -4 20 -16t8 -27t0 -29t-4 -20q-218 12 -433 -16t-427 -74q-34 -8 -83 -28t-100 -36t-98 -22t-79 16q-8 4 -14 10t-8 16zM574 1598q10 18 36 39t54 42t53 42t35 39q44 94 81 129t66 29t50 -44t33 -87t17 -100 t0 -85t-19 -41t-36 31q-4 6 -15 37t-25 64t-29 53t-29 6q-8 -12 -33 -54t-61 -82t-76 -63t-78 1q-10 6 -21 17t-3 27z" />
<glyph unicode="&#xcb;" horiz-adv-x="1492" d="M36 46q-12 10 6 22q20 72 41 138t45 131t51 132t57 141q10 18 -3 37t-30 38t-24 40t15 43q2 2 15 6t29 7t29 6t17 5q6 4 23 21t21 23q32 54 61 96t54 84t45 88t36 108q6 24 -11 31t-39 13t-36 19t-2 49q8 22 77 48t175 50t238 44t264 32t252 15t204 -8t120 -38t-2 -75 q-18 -4 -37 -1t-39 9t-42 11t-42 3q-96 -8 -188 -6t-184 2t-184 -7t-184 -33q-64 -18 -114 -63t-95 -114t-90 -159t-101 -198q22 -6 83 8t140 35t167 42t165 30t135 0t78 -47q2 -4 2 -12t-2 -10q-106 -16 -219 -29t-224 -33t-217 -53t-200 -89q-76 -134 -136 -276t-106 -288 q58 20 135 39t148 35t124 26t63 12q170 26 327 41t327 5q14 -4 20 -16t8 -27t0 -29t-4 -20q-218 12 -433 -16t-427 -74q-34 -8 -83 -28t-100 -36t-98 -22t-79 16q-8 4 -14 10t-8 16zM721 1632q13 42 45 65t70 18t60 -55q12 -30 -4 -63t-44 -54t-60 -23t-52 28q-28 42 -15 84 zM1008 1642q14 42 46 65t70 18t58 -55q12 -30 -4 -63t-44 -54t-59 -23t-51 28q-30 42 -16 84z" />
<glyph unicode="&#xcc;" horiz-adv-x="440" d="M21 107q3 25 8 51t11 46t6 22l452 1176q14 36 26 27t19 -38t7 -66t-8 -59q-64 -152 -129 -305t-124 -308t-111 -312t-88 -319q-16 -10 -27 -8t-20 11t-14 21t-7 22q-4 14 -1 39zM285 1690q-11 26 1 86q44 4 88 -26t81 -72t60 -87t25 -72t-24 -26t-86 51q-28 48 -58 68 t-53 36t-34 42z" />
<glyph unicode="&#xcd;" horiz-adv-x="440" d="M21 107q3 25 8 51t11 46t6 22l452 1176q14 36 26 27t19 -38t7 -66t-8 -59q-64 -152 -129 -305t-124 -308t-111 -312t-88 -319q-16 -10 -27 -8t-20 11t-14 21t-7 22q-4 14 -1 39zM235 1469q3 29 30 75t68 90t91 74t98 28q12 -60 -1 -88t-40 -47t-63 -42t-66 -71 q-66 -48 -93 -48t-24 29z" />
<glyph unicode="&#xce;" horiz-adv-x="440" d="M21 107q3 25 8 51t11 46t6 22l452 1176q14 36 26 27t19 -38t7 -66t-8 -59q-64 -152 -129 -305t-124 -308t-111 -312t-88 -319q-16 -10 -27 -8t-20 11t-14 21t-7 22q-4 14 -1 39zM292 1502q10 18 36 39t54 42t53 42t35 39q44 94 81 129t66 29t50 -44t33 -87t17 -100t0 -85 t-19 -41t-36 31q-4 6 -15 37t-25 64t-29 53t-29 6q-8 -12 -33 -54t-61 -82t-76 -63t-78 1q-10 6 -21 17t-3 27z" />
<glyph unicode="&#xcf;" horiz-adv-x="440" d="M21 107q3 25 8 51t11 46t6 22l452 1176q14 36 26 27t19 -38t7 -66t-8 -59q-64 -152 -129 -305t-124 -308t-111 -312t-88 -319q-16 -10 -27 -8t-20 11t-14 21t-7 22q-4 14 -1 39zM273 1658q13 42 45 65t70 18t60 -55q12 -30 -4 -63t-44 -54t-60 -23t-52 28q-28 42 -15 84z M560 1668q14 42 46 65t70 18t58 -55q12 -30 -4 -63t-44 -54t-59 -23t-51 28q-30 42 -16 84z" />
<glyph unicode="&#xd0;" horiz-adv-x="1646" d="M-47 730q23 22 76 41t130 33t163 24q32 70 61 134t45 104q-18 58 -7 103t39 82t68 68t80 61q114 84 246 130t269 51t273 -35t256 -130q96 -80 113 -174t-27 -193t-137 -201t-217 -200t-269 -189t-290 -168t-282 -136t-244 -93t-175 -41t-78 21q-10 30 4 53t42 39 q124 62 242 105t233 86t229 96t232 137q262 152 402 284t186 239t12 188t-118 131t-205 67t-251 -3t-254 -79t-214 -163q-2 -4 -6 -14t-7 -21l-6 -22t-3 -13q-22 -90 -42 -162t-42 -132q80 2 151 -2t122 -17t75 -36t8 -55q-22 0 -73 -3t-109 -7t-110 -7t-72 -3 q-10 -2 -23 -4t-27 -4q-30 -62 -60 -115t-60 -107t-60 -114t-60 -138q-36 -12 -51 2t-17 43t7 67t21 74t24 66t16 42q10 26 25 62t35 76q-42 -8 -85 -14t-80 -4t-69 12t-54 32q-24 24 -1 46z" />
<glyph unicode="&#xd1;" horiz-adv-x="1660" d="M20 22q0 18 2 24q14 62 49 138t77 150t82 141t64 113q12 24 37 73t56 112t66 131t66 131t56 112t37 73q62 64 103 36t73 -114t58 -212t56 -258t68 -252t92 -194q26 -12 63 26t81 111t92 171t97 206t95 218t86 203t69 163t45 98q14 26 29 25t25 -16t15 -38t-1 -41 q-64 -174 -120 -314t-115 -270t-126 -265t-153 -299q-64 -78 -124 -87t-124 87q-66 116 -104 220t-65 205t-49 206t-54 227q-18 12 -60 -42t-97 -144t-115 -202t-114 -216t-96 -186t-60 -114q-10 -18 -25 -44l-30 -52t-26 -44l-11 -18h-68q-2 4 -2 22zM580 1425q6 33 29 79 t57 90t77 77t88 41t90 -18t83 -100q18 -86 51 -118t76 -29t93 32t104 67t110 77t108 61q12 -20 -12 -57t-69 -80t-104 -85t-121 -71t-119 -38t-95 15q-58 10 -87 47t-46 78t-29 73t-35 32t-67 -46t-122 -160q-40 -24 -53 -12t-7 45z" />
<glyph unicode="&#xd2;" horiz-adv-x="1054" d="M40 301q10 87 49 175t81 156q14 24 52 82t81 123t82 122t55 79q24 154 96 245t163 125t187 15t168 -86t104 -179t-5 -262t-157 -336t-352 -402q-40 -38 -95 -73t-116 -57t-123 -26t-116 20q-100 42 -132 117t-22 162zM124 180q20 -90 76 -112t132 8t166 102t180 169 t172 211t143 226t93 214t21 177t-72 113t-187 22q-46 -40 -122 -117t-162 -175t-172 -211t-152 -225t-100 -216t-16 -186zM649 1704q-11 26 1 86q44 4 88 -26t81 -72t60 -87t25 -72t-24 -26t-86 51q-28 48 -58 68t-53 36t-34 42z" />
<glyph unicode="&#xd3;" horiz-adv-x="1054" d="M40 301q10 87 49 175t81 156q14 24 52 82t81 123t82 122t55 79q24 154 96 245t163 125t187 15t168 -86t104 -179t-5 -262t-157 -336t-352 -402q-40 -38 -95 -73t-116 -57t-123 -26t-116 20q-100 42 -132 117t-22 162zM124 180q20 -90 76 -112t132 8t166 102t180 169 t172 211t143 226t93 214t21 177t-72 113t-187 22q-46 -40 -122 -117t-162 -175t-172 -211t-152 -225t-100 -216t-16 -186zM585 1453q3 29 30 75t68 90t91 74t98 28q12 -60 -1 -88t-40 -47t-63 -42t-66 -71q-66 -48 -93 -48t-24 29z" />
<glyph unicode="&#xd4;" horiz-adv-x="1054" d="M40 301q10 87 49 175t81 156q14 24 52 82t81 123t82 122t55 79q24 154 96 245t163 125t187 15t168 -86t104 -179t-5 -262t-157 -336t-352 -402q-40 -38 -95 -73t-116 -57t-123 -26t-116 20q-100 42 -132 117t-22 162zM124 180q20 -90 76 -112t132 8t166 102t180 169 t172 211t143 226t93 214t21 177t-72 113t-187 22q-46 -40 -122 -117t-162 -175t-172 -211t-152 -225t-100 -216t-16 -186zM720 1536q10 18 36 39t54 42t53 42t35 39q44 94 81 129t66 29t50 -44t33 -87t17 -100t0 -85t-19 -41t-36 31q-4 6 -15 37t-25 64t-29 53t-29 6 q-8 -12 -33 -54t-61 -82t-76 -63t-78 1q-10 6 -21 17t-3 27z" />
<glyph unicode="&#xd5;" horiz-adv-x="1054" d="M40 301q10 87 49 175t81 156q14 24 52 82t81 123t82 122t55 79q24 154 96 245t163 125t187 15t168 -86t104 -179t-5 -262t-157 -336t-352 -402q-40 -38 -95 -73t-116 -57t-123 -26t-116 20q-100 42 -132 117t-22 162zM124 180q20 -90 76 -112t132 8t166 102t180 169 t172 211t143 226t93 214t21 177t-72 113t-187 22q-46 -40 -122 -117t-162 -175t-172 -211t-152 -225t-100 -216t-16 -186zM562 1465q6 33 29 79t57 90t77 77t88 41t90 -18t83 -100q18 -86 51 -118t76 -29t93 32t104 67t110 77t108 61q12 -20 -12 -57t-69 -80t-104 -85 t-121 -71t-119 -38t-95 15q-58 10 -87 47t-46 78t-29 73t-35 32t-67 -46t-122 -160q-40 -24 -53 -12t-7 45z" />
<glyph unicode="&#xd6;" horiz-adv-x="1054" d="M40 301q10 87 49 175t81 156q14 24 52 82t81 123t82 122t55 79q24 154 96 245t163 125t187 15t168 -86t104 -179t-5 -262t-157 -336t-352 -402q-40 -38 -95 -73t-116 -57t-123 -26t-116 20q-100 42 -132 117t-22 162zM124 180q20 -90 76 -112t132 8t166 102t180 169 t172 211t143 226t93 214t21 177t-72 113t-187 22q-46 -40 -122 -117t-162 -175t-172 -211t-152 -225t-100 -216t-16 -186zM663 1614q13 42 45 65t70 18t60 -55q12 -30 -4 -63t-44 -54t-60 -23t-52 28q-28 42 -15 84zM950 1624q14 42 46 65t70 18t58 -55q12 -30 -4 -63 t-44 -54t-59 -23t-51 28q-30 42 -16 84z" />
<glyph unicode="&#xd7;" horiz-adv-x="1364" d="M170 233q16 27 51 53t80 53t84 56t63 60t16 65q-2 8 -12 45t-22 79t-22 78t-12 46v46q26 20 51 -12t48 -81t44 -97t37 -60q36 24 77 57t81 68t76 68t60 57q42 22 59 19t17 -21t-11 -44t-25 -51t-27 -43l-13 -18q-118 -78 -172 -121t-66 -71t7 -51t46 -59t50 -98t21 -166 q-58 -18 -88 3t-43 61t-16 90t-10 91t-24 63t-58 6t-113 -79t-186 -191q-6 4 -24 22t-22 24q-18 26 -2 53z" />
<glyph unicode="&#xd8;" horiz-adv-x="1054" d="M40 301q10 87 49 175t81 156q14 24 52 82t81 123t82 122t55 79q24 154 96 245t163 125t187 15t168 -86t104 -179t-5 -262t-157 -336t-352 -402q-40 -38 -95 -73t-116 -57t-123 -26t-116 20q-100 42 -132 117t-22 162zM124 180q20 -90 76 -112t132 8t166 102t180 169 t172 211t143 226t93 214t21 177t-72 113t-187 22q-46 -40 -122 -117t-162 -175t-172 -211t-152 -225t-100 -216t-16 -186zM372 -187q-14 98 8 237t68.5 296t109.5 323t129.5 321.5t128.5 291.5t108 232q26 18 42.5 8t25.5 -32.5t11.5 -49.5t0.5 -43q-14 -33 -48 -116 t-71.5 -176.5t-71 -176.5t-45.5 -117q-12 -26 -34 -89.5t-47.5 -133.5t-47.5 -132t-29 -86q-12 -36 -28.5 -110t-37.5 -158.5t-44 -163.5t-49 -125q-7 -8 -18.5 -17t-23.5 -13t-23.5 2.5t-13.5 27.5z" />
<glyph unicode="&#xd9;" horiz-adv-x="1216" d="M66 376q8 112 42 235t81 242t100 227t98 190t76 130t35 46q16 -8 22 -21t7 -29t-1 -32t-4 -30q-2 -4 -12 -23t-12 -23q-156 -342 -234 -573t-96 -369t17 -193t106 -44t170 78t210 173t225 242t217 284t184 298t127 286q4 4 11 13t11 9q56 -38 42 -129t-77 -213t-166 -264 t-224 -280t-249 -261t-244 -207t-207 -119t-139 3q-72 58 -98 150t-18 204zM655 1622q-11 26 1 86q44 4 88 -26t81 -72t60 -87t25 -72t-24 -26t-86 51q-28 48 -58 68t-53 36t-34 42z" />
<glyph unicode="&#xda;" horiz-adv-x="1216" d="M66 376q8 112 42 235t81 242t100 227t98 190t76 130t35 46q16 -8 22 -21t7 -29t-1 -32t-4 -30q-2 -4 -12 -23t-12 -23q-156 -342 -234 -573t-96 -369t17 -193t106 -44t170 78t210 173t225 242t217 284t184 298t127 286q4 4 11 13t11 9q56 -38 42 -129t-77 -213t-166 -264 t-224 -280t-249 -261t-244 -207t-207 -119t-139 3q-72 58 -98 150t-18 204zM713 1453q3 29 30 75t68 90t91 74t98 28q12 -60 -1 -88t-40 -47t-63 -42t-66 -71q-66 -48 -93 -48t-24 29z" />
<glyph unicode="&#xdb;" horiz-adv-x="1216" d="M66 376q8 112 42 235t81 242t100 227t98 190t76 130t35 46q16 -8 22 -21t7 -29t-1 -32t-4 -30q-2 -4 -12 -23t-12 -23q-156 -342 -234 -573t-96 -369t17 -193t106 -44t170 78t210 173t225 242t217 284t184 298t127 286q4 4 11 13t11 9q56 -38 42 -129t-77 -213t-166 -264 t-224 -280t-249 -261t-244 -207t-207 -119t-139 3q-72 58 -98 150t-18 204zM710 1560q10 18 36 39t54 42t53 42t35 39q44 94 81 129t66 29t50 -44t33 -87t17 -100t0 -85t-19 -41t-36 31q-4 6 -15 37t-25 64t-29 53t-29 6q-8 -12 -33 -54t-61 -82t-76 -63t-78 1q-10 6 -21 17 t-3 27z" />
<glyph unicode="&#xdc;" horiz-adv-x="1216" d="M66 376q8 112 42 235t81 242t100 227t98 190t76 130t35 46q16 -8 22 -21t7 -29t-1 -32t-4 -30q-2 -4 -12 -23t-12 -23q-156 -342 -234 -573t-96 -369t17 -193t106 -44t170 78t210 173t225 242t217 284t184 298t127 286q4 4 11 13t11 9q56 -38 42 -129t-77 -213t-166 -264 t-224 -280t-249 -261t-244 -207t-207 -119t-139 3q-72 58 -98 150t-18 204zM719 1698q13 42 45 65t70 18t60 -55q12 -30 -4 -63t-44 -54t-60 -23t-52 28q-28 42 -15 84zM1006 1708q14 42 46 65t70 18t58 -55q12 -30 -4 -63t-44 -54t-59 -23t-51 28q-30 42 -16 84z" />
<glyph unicode="&#xdd;" horiz-adv-x="804" d="M70 1351q6 15 42 -3q28 -26 70 -83t87 -128t92 -146t87 -134t70 -94t44 -25q20 40 59 127t85 190t95 206t92 175t76 97t45 -27q8 -30 -18 -105t-74 -180t-113 -234t-136 -267t-142 -277t-133 -266t-108 -233t-66 -178q-6 -20 -19 -39t-29 -27t-33 1t-31 43q-24 60 -6 126 t58 139t94 151t102 161t80 171t32 178q-8 18 -36 61t-66 100l-82 123t-85 129t-74 120t-49 95t-10 53zM375 1495q3 29 30 75t68 90t91 74t98 28q12 -60 -1 -88t-40 -47t-63 -42t-66 -71q-66 -48 -93 -48t-24 29z" />
<glyph unicode="&#xde;" horiz-adv-x="1202" d="M-140 -292q26 52 69 166t96 264t112 321t119 336t118 310t106 245t85 139t57 -9q30 -28 31 -62t-16 -76t-47 -91t-60 -107t-55 -127t-33 -147q210 160 358 218t236 44t118 -84t7 -166t-98 -203t-198 -192t-294 -135t-383 -34q-2 2 -14 -45t-30 -119t-38 -156t-38 -156 t-30 -119t-12 -45t-26 6t-57 9t-57 10zM280 452q0 -26 4 -34q100 -4 199 17t188 61t162 98t120 128t63 147t-8 159q-2 4 -27 2t-29 -2q-100 14 -206 -35t-199 -133t-163 -185t-100 -191q-4 -6 -4 -32z" />
<glyph unicode="&#xdf;" horiz-adv-x="1328" d="M52 -37q-8 83 2 171t36 150q6 14 16 59t23 107t27 132t26 132t22 108t16 60q26 60 23 106t-9 86t-4 80t38 90q4 6 24 29t43 50t43 50t26 29q10 14 58 48t117 78t153 92t169 88t162 66t132 28t81 -27t8 -101q-18 -70 -58 -133t-94 -123t-116 -117t-122 -114t-111 -114 t-83 -115q230 -8 355 -51t169 -107t20 -143t-94 -157t-174 -148t-218 -119t-226 -69t-198 2l16 62q192 0 337 45t243 112t149 147t54 151t-42 122t-139 60t-236 -35t-334 -162l40 218q64 54 148 126t172 151t172 159t146 152t94 130t18 90q-88 14 -188 -29t-197 -112 t-180 -149t-137 -138q-70 -154 -137 -339t-114 -382t-65 -398t12 -387q-52 2 -79 61t-35 142z" />
<glyph unicode="&#xe0;" horiz-adv-x="1404" d="M61 164q-5 78 22 176t80 205t123 204t152 174t164 114t160 26t142 -91q40 -50 48 -101t-2 -104t-32 -108t-43 -111t-34 -114t-5 -118q10 -76 68 -90t139 8t171 70t167 96t128 84l51 36q56 12 63 -7t-22 -56t-87 -84t-132 -91t-158 -80t-164 -49t-151 2t-117 71 q-22 24 -33 48t-35 42q-30 -28 -72 -73t-91 -90t-104 -85t-113 -60t-117 -14t-113 52q-48 40 -53 118zM136 114q18 -64 80 -59t144 61t170 153t158 216t107 251t19 260q-48 38 -120 3t-153 -114t-160 -188t-139 -220t-91 -209t-15 -154zM663 1344q-11 26 1 86q44 4 88 -26 t81 -72t60 -87t25 -72t-24 -26t-86 51q-28 48 -58 68t-53 36t-34 42z" />
<glyph unicode="&#xe1;" horiz-adv-x="1404" d="M61 164q-5 78 22 176t80 205t123 204t152 174t164 114t160 26t142 -91q40 -50 48 -101t-2 -104t-32 -108t-43 -111t-34 -114t-5 -118q10 -76 68 -90t139 8t171 70t167 96t128 84l51 36q56 12 63 -7t-22 -56t-87 -84t-132 -91t-158 -80t-164 -49t-151 2t-117 71 q-22 24 -33 48t-35 42q-30 -28 -72 -73t-91 -90t-104 -85t-113 -60t-117 -14t-113 52q-48 40 -53 118zM136 114q18 -64 80 -59t144 61t170 153t158 216t107 251t19 260q-48 38 -120 3t-153 -114t-160 -188t-139 -220t-91 -209t-15 -154zM415 1109q3 29 30 75t68 90t91 74 t98 28q12 -60 -1 -88t-40 -47t-63 -42t-66 -71q-66 -48 -93 -48t-24 29z" />
<glyph unicode="&#xe2;" horiz-adv-x="1404" d="M61 164q-5 78 22 176t80 205t123 204t152 174t164 114t160 26t142 -91q40 -50 48 -101t-2 -104t-32 -108t-43 -111t-34 -114t-5 -118q10 -76 68 -90t139 8t171 70t167 96t128 84l51 36q56 12 63 -7t-22 -56t-87 -84t-132 -91t-158 -80t-164 -49t-151 2t-117 71 q-22 24 -33 48t-35 42q-30 -28 -72 -73t-91 -90t-104 -85t-113 -60t-117 -14t-113 52q-48 40 -53 118zM136 114q18 -64 80 -59t144 61t170 153t158 216t107 251t19 260q-48 38 -120 3t-153 -114t-160 -188t-139 -220t-91 -209t-15 -154zM454 1328q10 18 36 39t54 42t53 42 t35 39q44 94 81 129t66 29t50 -44t33 -87t17 -100t0 -85t-19 -41t-36 31q-4 6 -15 37t-25 64t-29 53t-29 6q-8 -12 -33 -54t-61 -82t-76 -63t-78 1q-10 6 -21 17t-3 27z" />
<glyph unicode="&#xe3;" horiz-adv-x="1404" d="M61 164q-5 78 22 176t80 205t123 204t152 174t164 114t160 26t142 -91q40 -50 48 -101t-2 -104t-32 -108t-43 -111t-34 -114t-5 -118q10 -76 68 -90t139 8t171 70t167 96t128 84l51 36q56 12 63 -7t-22 -56t-87 -84t-132 -91t-158 -80t-164 -49t-151 2t-117 71 q-22 24 -33 48t-35 42q-30 -28 -72 -73t-91 -90t-104 -85t-113 -60t-117 -14t-113 52q-48 40 -53 118zM136 114q18 -64 80 -59t144 61t170 153t158 216t107 251t19 260q-48 38 -120 3t-153 -114t-160 -188t-139 -220t-91 -209t-15 -154zM318 1221q6 33 29 79t57 90t77 77 t88 41t90 -18t83 -100q18 -86 51 -118t76 -29t93 32t104 67t110 77t108 61q12 -20 -12 -57t-69 -80t-104 -85t-121 -71t-119 -38t-95 15q-58 10 -87 47t-46 78t-29 73t-35 32t-67 -46t-122 -160q-40 -24 -53 -12t-7 45z" />
<glyph unicode="&#xe4;" horiz-adv-x="1404" d="M61 164q-5 78 22 176t80 205t123 204t152 174t164 114t160 26t142 -91q40 -50 48 -101t-2 -104t-32 -108t-43 -111t-34 -114t-5 -118q10 -76 68 -90t139 8t171 70t167 96t128 84l51 36q56 12 63 -7t-22 -56t-87 -84t-132 -91t-158 -80t-164 -49t-151 2t-117 71 q-22 24 -33 48t-35 42q-30 -28 -72 -73t-91 -90t-104 -85t-113 -60t-117 -14t-113 52q-48 40 -53 118zM136 114q18 -64 80 -59t144 61t170 153t158 216t107 251t19 260q-48 38 -120 3t-153 -114t-160 -188t-139 -220t-91 -209t-15 -154zM453 1212q13 42 45 65t70 18t60 -55 q12 -30 -4 -63t-44 -54t-60 -23t-52 28q-28 42 -15 84zM740 1222q14 42 46 65t70 18t58 -55q12 -30 -4 -63t-44 -54t-59 -23t-51 28q-30 42 -16 84z" />
<glyph unicode="&#xe5;" horiz-adv-x="1404" d="M61 164q-5 78 22 176t80 205t123 204t152 174t164 114t160 26t142 -91q40 -50 48 -101t-2 -104t-32 -108t-43 -111t-34 -114t-5 -118q10 -76 68 -90t139 8t171 70t167 96t128 84l51 36q56 12 63 -7t-22 -56t-87 -84t-132 -91t-158 -80t-164 -49t-151 2t-117 71 q-22 24 -33 48t-35 42q-30 -28 -72 -73t-91 -90t-104 -85t-113 -60t-117 -14t-113 52q-48 40 -53 118zM136 114q18 -64 80 -59t144 61t170 153t158 216t107 251t19 260q-48 38 -120 3t-153 -114t-160 -188t-139 -220t-91 -209t-15 -154zM470 1101q-12 33 1 72t46 80t72 74 t80 55t71 26q100 12 143 -17t43 -78t-35 -107t-91 -102t-127 -63t-141 7q-50 20 -62 53zM560 1168q10 -54 50 -58t88 19t91 61t57 72t-12 52t-116 0q-26 -22 -51 -37t-46 -30t-37 -33t-24 -46z" />
<glyph unicode="&#xe6;" horiz-adv-x="2272" d="M61 164q-5 78 22 176t80 205t123 204t152 174t164 114t160 26t142 -91q40 -50 48 -101t-2 -104t-32 -108t-43 -111t-34 -114t-5 -118q8 -58 47 -83t96 -28t127 13t142 42q168 60 380 174q24 -8 -14 -48t-112 -89t-174 -96t-201 -67t-191 -3t-144 95q-18 26 -31 49t-37 41 q-30 -28 -72 -73t-91 -90t-104 -85t-113 -60t-117 -14t-113 52q-48 40 -53 118zM136 114q18 -64 80 -59t144 61t170 153t158 216t107 251t19 260q-48 38 -120 3t-153 -114t-160 -188t-139 -220t-91 -209t-15 -154zM753 445q7 55 23 105q60 64 135 147t159 163t175 149 t185 105q32 14 51 -1t27 -47t7 -74t-7 -82t-16 -72t-20 -44q-24 -28 -93 -66t-153 -83t-168 -93t-138 -95t-64 -93t56 -84q68 -8 165 7t198 40t195 52t154 43l24 -22q-44 -58 -144 -106t-216 -79t-226 -40t-174 13q-60 20 -91 61t-41 91t-3 105zM1006 670q32 -6 83 9t106 43 t105 63t79 69t30 60t-43 38q-2 4 -30 -16t-69 -51t-88 -68t-86 -69t-65 -55t-22 -23z" />
<glyph unicode="&#xe7;" horiz-adv-x="1118" d="M51 291q15 91 69 192t128 193t156 166t155 112t125 30t64 -80q6 -32 -7 -70t-36 -73t-52 -64t-56 -43t-48 -10t-27 34q24 40 54 81t58 77q-12 22 -46 10t-82 -48t-101 -91t-103 -119t-89 -133t-57 -133t-9 -119t57 -89q66 -6 152 13t176 49t179 65t162 65t124 47t67 9 q38 -20 5 -58t-111 -82t-185 -87t-215 -74t-204 -44t-150 5q-102 34 -135 106t-18 163zM380 -316q-10 28 19 39t70 17t81 15t52 33q12 26 4 37t-28 17t-45 8t-47 8t-36 19t-10 39q-8 44 -6 82t11 54t24 1t33 -75q12 -38 54 -52t83 -24t67 -28t8 -62q-4 -16 -38 -50t-82 -64 t-101 -44t-91 8q-4 2 -12 10t-10 12z" />
<glyph unicode="&#xe8;" horiz-adv-x="870" d="M35 279q7 55 23 105q60 64 135 147t159 163t175 149t185 105q32 14 51 -1t27 -47t7 -74t-7 -82t-16 -72t-20 -44q-24 -28 -93 -66t-153 -83t-168 -93t-138 -95t-64 -93t56 -84q68 -8 165 7t198 40t195 52t154 43l24 -22q-44 -58 -144 -106t-216 -79t-226 -40t-174 13 q-60 20 -91 61t-41 91t-3 105zM273 1212q-11 26 1 86q44 4 88 -26t81 -72t60 -87t25 -72t-24 -26t-86 51q-28 48 -58 68t-53 36t-34 42zM288 504q32 -6 83 9t106 43t105 63t79 69t30 60t-43 38q-2 2 -30 -17t-69 -50t-88 -68t-86 -69t-65 -55t-22 -23z" />
<glyph unicode="&#xe9;" horiz-adv-x="870" d="M35 279q7 55 23 105q60 64 135 147t159 163t175 149t185 105q32 14 51 -1t27 -47t7 -74t-7 -82t-16 -72t-20 -44q-24 -28 -93 -66t-153 -83t-168 -93t-138 -95t-64 -93t56 -84q68 -8 165 7t198 40t195 52t154 43l24 -22q-44 -58 -144 -106t-216 -79t-226 -40t-174 13 q-60 20 -91 61t-41 91t-3 105zM288 504q32 -6 83 9t106 43t105 63t79 69t30 60t-43 38q-2 2 -30 -17t-69 -50t-88 -68t-86 -69t-65 -55t-22 -23zM315 841q3 29 30 75t68 90t91 74t98 28q12 -60 -1 -88t-40 -47t-63 -42t-66 -71q-66 -48 -93 -48t-24 29z" />
<glyph unicode="&#xea;" horiz-adv-x="870" d="M35 279q7 55 23 105q60 64 135 147t159 163t175 149t185 105q32 14 51 -1t27 -47t7 -74t-7 -82t-16 -72t-20 -44q-24 -28 -93 -66t-153 -83t-168 -93t-138 -95t-64 -93t56 -84q68 -8 165 7t198 40t195 52t154 43l24 -22q-44 -58 -144 -106t-216 -79t-226 -40t-174 13 q-60 20 -91 61t-41 91t-3 105zM194 1218q10 18 36 39t54 42t53 42t35 39q44 94 81 129t66 29t50 -44t33 -87t17 -100t0 -85t-19 -41t-36 31q-4 6 -15 37t-25 64t-29 53t-29 6q-8 -12 -33 -54t-61 -82t-76 -63t-78 1q-10 6 -21 17t-3 27zM288 504q32 -6 83 9t106 43t105 63 t79 69t30 60t-43 38q-2 2 -30 -17t-69 -50t-88 -68t-86 -69t-65 -55t-22 -23z" />
<glyph unicode="&#xeb;" horiz-adv-x="870" d="M35 279q7 55 23 105q60 64 135 147t159 163t175 149t185 105q32 14 51 -1t27 -47t7 -74t-7 -82t-16 -72t-20 -44q-24 -28 -93 -66t-153 -83t-168 -93t-138 -95t-64 -93t56 -84q68 -8 165 7t198 40t195 52t154 43l24 -22q-44 -58 -144 -106t-216 -79t-226 -40t-174 13 q-60 20 -91 61t-41 91t-3 105zM233 1068q13 42 45 65t70 18t60 -55q12 -30 -4 -63t-44 -54t-60 -23t-52 28q-28 42 -15 84zM288 504q32 -6 83 9t106 43t105 63t79 69t30 60t-43 38q-2 2 -30 -17t-69 -50t-88 -68t-86 -69t-65 -55t-22 -23zM520 1078q14 42 46 65t70 18 t58 -55q12 -30 -4 -63t-44 -54t-59 -23t-51 28q-30 42 -16 84z" />
<glyph unicode="&#xec;" horiz-adv-x="508" d="M22 22q82 264 149 419t112 217t61 40t-3 -112t-80 -241t-171 -345q-16 -6 -38 -2t-30 24zM109 1002q-11 26 1 86q44 4 88 -26t81 -72t60 -87t25 -72t-24 -26t-86 51q-28 48 -58 68t-53 36t-34 42z" />
<glyph unicode="&#xed;" horiz-adv-x="508" d="M22 22q8 -20 30 -24t38 2q110 194 171 345t80 241t3 112t-61 -40t-112 -217t-149 -419zM135 841q3 29 30 75t68 90t91 74t98 28q12 -60 -1 -88t-40 -47t-63 -42t-66 -71q-66 -48 -93 -48t-24 29z" />
<glyph unicode="&#xee;" horiz-adv-x="508" d="M-2 994q10 18 36 39t54 42t53 42t35 39q44 94 81 129t66 29t50 -44t33 -87t17 -100t0 -85t-19 -41t-36 31q-4 6 -15 37t-25 64t-29 53t-29 6q-8 -12 -33 -54t-61 -82t-76 -63t-78 1q-10 6 -21 17t-3 27zM22 22q82 264 149 419t112 217t61 40t-3 -112t-80 -241t-171 -345 q-16 -6 -38 -2t-30 24z" />
<glyph unicode="&#xef;" horiz-adv-x="508" d="M22 22q82 264 149 419t112 217t61 40t-3 -112t-80 -241t-171 -345q-16 -6 -38 -2t-30 24zM39 936q13 42 45 65t70 18t60 -55q12 -30 -4 -63t-44 -54t-60 -23t-52 28q-28 42 -15 84zM326 946q14 42 46 65t70 18t58 -55q12 -30 -4 -63t-44 -54t-59 -23t-51 28 q-30 42 -16 84z" />
<glyph unicode="&#xf0;" horiz-adv-x="628" d="M17 434q7 54 43 90q48 36 103 28t112 -40t115 -74t110 -74q8 22 -2 54t-30 69t-49 75t-59 74q-22 -22 -44 -37t-38 -25q-28 -14 -17 22t45 96q-48 48 -78 64q-52 48 -58 76t12 37t50 -2t60 -43q14 -16 36 -43t36 -43l114 108q26 -18 37 -27t4 -22t-33 -38t-74 -75 q50 -60 96 -142t74 -166t35 -161t-21 -125q-50 -72 -107 -99t-116 -21t-115 39t-103 82t-81 109t-49 120t-8 114zM96 434q-10 -40 7 -95t50 -109t78 -100t91 -71t88 -21t72 52q12 34 3 77t-34 86t-63 81t-85 65t-100 38t-107 -3z" />
<glyph unicode="&#xf1;" horiz-adv-x="1152" d="M36 136q-2 2 23 51t62 123t82 160t85 161t70 127t38 56q42 -28 43 -61t-11 -68t-27 -71t-5 -72q32 22 89 61t124 81t140 82t137 63t115 25t75 -30t15 -105t-63 -199q-6 -14 -29 -67t-50 -114t-50 -114t-29 -67q-2 -8 -5 -29t-7 -46t-12 -48t-20 -35t-28 3t-18 19 q-6 66 11 131t46 128t62 126t57 124t34 120t-8 117q-50 18 -115 -8t-137 -79t-149 -124t-150 -144l-139 -139t-119 -109t-89 -54t-48 25zM154 987q6 33 29 79t57 90t77 77t88 41t90 -18t83 -100q18 -86 51 -118t76 -29t93 32t104 67t110 77t108 61q12 -20 -12 -57t-69 -80 t-104 -85t-121 -71t-119 -38t-95 15q-58 10 -87 47t-46 78t-29 73t-35 32t-67 -46t-122 -160q-40 -24 -53 -12t-7 45z" />
<glyph unicode="&#xf2;" d="M53 124q-21 68 1 151t76 172t120 163t133 125t115 57q124 16 195 -17t97 -95t14 -145t-53 -167t-106 -162t-144 -131t-167 -70t-176 17q-84 34 -105 102zM136 136q16 -64 68 -71t121 26t145 96t139 137t104 149t40 131t-54 85t-177 11q-28 -26 -72 -63t-91 -81t-93 -95 t-80 -105t-49 -110t-1 -110zM409 1110q-11 26 1 86q44 4 88 -26t81 -72t60 -87t25 -72t-24 -26t-86 51q-28 48 -58 68t-53 36t-34 42z" />
<glyph unicode="&#xf3;" d="M53 124q-21 68 1 151t76 172t120 163t133 125t115 57q124 16 195 -17t97 -95t14 -145t-53 -167t-106 -162t-144 -131t-167 -70t-176 17q-84 34 -105 102zM136 136q16 -64 68 -71t121 26t145 96t139 137t104 149t40 131t-54 85t-177 11q-28 -26 -72 -63t-91 -81t-93 -95 t-80 -105t-49 -110t-1 -110zM311 841q3 29 30 75t68 90t91 74t98 28q12 -60 -1 -88t-40 -47t-63 -42t-66 -71q-66 -48 -93 -48t-24 29z" />
<glyph unicode="&#xf4;" d="M53 124q-21 68 1 151t76 172t120 163t133 125t115 57q124 16 195 -17t97 -95t14 -145t-53 -167t-106 -162t-144 -131t-167 -70t-176 17q-84 34 -105 102zM136 136q16 -64 68 -71t121 26t145 96t139 137t104 149t40 131t-54 85t-177 11q-28 -26 -72 -63t-91 -81t-93 -95 t-80 -105t-49 -110t-1 -110zM298 1104q10 18 36 39t54 42t53 42t35 39q44 94 81 129t66 29t50 -44t33 -87t17 -100t0 -85t-19 -41t-36 31q-4 6 -15 37t-25 64t-29 53t-29 6q-8 -12 -33 -54t-61 -82t-76 -63t-78 1q-10 6 -21 17t-3 27z" />
<glyph unicode="&#xf5;" d="M53 124q-21 68 1 151t76 172t120 163t133 125t115 57q124 16 195 -17t97 -95t14 -145t-53 -167t-106 -162t-144 -131t-167 -70t-176 17q-84 34 -105 102zM136 136q16 -64 68 -71t121 26t145 96t139 137t104 149t40 131t-54 85t-177 11q-28 -26 -72 -63t-91 -81t-93 -95 t-80 -105t-49 -110t-1 -110zM168 929q6 33 29 79t57 90t77 77t88 41t90 -18t83 -100q18 -86 51 -118t76 -29t93 32t104 67t110 77t108 61q12 -20 -12 -57t-69 -80t-104 -85t-121 -71t-119 -38t-95 15q-58 10 -87 47t-46 78t-29 73t-35 32t-67 -46t-122 -160q-40 -24 -53 -12 t-7 45z" />
<glyph unicode="&#xf6;" d="M53 124q-21 68 1 151t76 172t120 163t133 125t115 57q124 16 195 -17t97 -95t14 -145t-53 -167t-106 -162t-144 -131t-167 -70t-176 17q-84 34 -105 102zM136 136q16 -64 68 -71t121 26t145 96t139 137t104 149t40 131t-54 85t-177 11q-28 -26 -72 -63t-91 -81t-93 -95 t-80 -105t-49 -110t-1 -110zM305 980q13 42 45 65t70 18t60 -55q12 -30 -4 -63t-44 -54t-60 -23t-52 28q-28 42 -15 84zM592 990q14 42 46 65t70 18t58 -55q12 -30 -4 -63t-44 -54t-59 -23t-51 28q-30 42 -16 84z" />
<glyph unicode="&#xf7;" horiz-adv-x="1230" d="M86 416q-20 14 24 68q2 8 73 22t176 27t229 22t232 11t183 -7t83 -35q4 -4 4 -22t-4 -24q-36 -2 -108 -7t-162 -12t-188 -14t-187 -14t-161 -12t-110 -7q-64 -10 -84 4zM441 227q13 17 35 23t46 0t34 -24q18 -34 8 -57t-32 -30t-49 3t-41 40q-14 28 -1 45zM442 767 q-2 23 9 40t33 21t48 -14t29 -44t-9 -45t-35 -24t-51 23q-22 20 -24 43z" />
<glyph unicode="&#xf8;" d="M53 124q-21 68 1 151t76 172t120 163t133 125t115 57q124 16 195 -17t97 -95t14 -145t-53 -167t-106 -162t-144 -131t-167 -70t-176 17q-84 34 -105 102zM136 136q16 -64 68 -71t121 26t145 96t139 137t104 149t40 131t-54 85t-177 11q-28 -26 -72 -63t-91 -81t-93 -95 t-80 -105t-49 -110t-1 -110zM186 -210q-12 76 7 183t59 228t94 249t111 248t110 225t93 179q22 14 36 6t22 -25t10 -38t0 -33q-12 -26 -41 -90t-61 -136t-61 -136t-39 -90q-10 -20 -29 -69t-41 -103t-41 -102t-25 -66q-10 -28 -24 -85t-32 -122t-38 -126t-42 -97 q-6 -6 -16 -13t-20 -10t-20 2t-12 21z" />
<glyph unicode="&#xf9;" horiz-adv-x="1152" d="M46 158q-10 30 7 87t51 125t79 141t88 136t80 108t57 59q46 -22 41 -67t-36 -103t-80 -124t-92 -131t-69 -125t-14 -106q44 -18 109 19t140 103t154 151t147 164t120 139t76 80q42 -20 42 -65t-23 -103t-56 -125t-57 -133t-28 -126t32 -104l68 -80h202q14 0 6 -12 t-23 -26t-31 -27t-18 -13q-52 -10 -84 -3t-74 25q-54 22 -86 58t-50 82t-28 97t-18 103q-18 12 -64 -23t-106 -87t-129 -107t-133 -81t-117 -10t-83 104zM431 1002q-11 26 1 86q44 4 88 -26t81 -72t60 -87t25 -72t-24 -26t-86 51q-28 48 -58 68t-53 36t-34 42z" />
<glyph unicode="&#xfa;" horiz-adv-x="1152" d="M46 158q-10 30 7 87t51 125t79 141t88 136t80 108t57 59q46 -22 41 -67t-36 -103t-80 -124t-92 -131t-69 -125t-14 -106q44 -18 109 19t140 103t154 151t147 164t120 139t76 80q42 -20 42 -65t-23 -103t-56 -125t-57 -133t-28 -126t32 -104l68 -80h202q14 0 6 -12 t-23 -26t-31 -27t-18 -13q-52 -10 -84 -3t-74 25q-54 22 -86 58t-50 82t-28 97t-18 103q-18 12 -64 -23t-106 -87t-129 -107t-133 -81t-117 -10t-83 104zM539 835q3 29 30 75t68 90t91 74t98 28q12 -60 -1 -88t-40 -47t-63 -42t-66 -71q-66 -48 -93 -48t-24 29z" />
<glyph unicode="&#xfb;" horiz-adv-x="1152" d="M46 158q-10 30 7 87t51 125t79 141t88 136t80 108t57 59q46 -22 41 -67t-36 -103t-80 -124t-92 -131t-69 -125t-14 -106q44 -18 109 19t140 103t154 151t147 164t120 139t76 80q42 -20 42 -65t-23 -103t-56 -125t-57 -133t-28 -126t32 -104l68 -80h202q14 0 6 -12 t-23 -26t-31 -27t-18 -13q-52 -10 -84 -3t-74 25q-54 22 -86 58t-50 82t-28 97t-18 103q-18 12 -64 -23t-106 -87t-129 -107t-133 -81t-117 -10t-83 104zM418 1110q10 18 36 39t54 42t53 42t35 39q44 94 81 129t66 29t50 -44t33 -87t17 -100t0 -85t-19 -41t-36 31 q-4 6 -15 37t-25 64t-29 53t-29 6q-8 -12 -33 -54t-61 -82t-76 -63t-78 1q-10 6 -21 17t-3 27z" />
<glyph unicode="&#xfc;" horiz-adv-x="1152" d="M46 158q-10 30 7 87t51 125t79 141t88 136t80 108t57 59q46 -22 41 -67t-36 -103t-80 -124t-92 -131t-69 -125t-14 -106q44 -18 109 19t140 103t154 151t147 164t120 139t76 80q42 -20 42 -65t-23 -103t-56 -125t-57 -133t-28 -126t32 -104l68 -80h202q14 0 6 -12 t-23 -26t-31 -27t-18 -13q-52 -10 -84 -3t-74 25q-54 22 -86 58t-50 82t-28 97t-18 103q-18 12 -64 -23t-106 -87t-129 -107t-133 -81t-117 -10t-83 104zM409 1020q13 42 45 65t70 18t60 -55q12 -30 -4 -63t-44 -54t-60 -23t-52 28q-28 42 -15 84zM696 1030q14 42 46 65 t70 18t58 -55q12 -30 -4 -63t-44 -54t-59 -23t-51 28q-30 42 -16 84z" />
<glyph unicode="&#xfd;" horiz-adv-x="882" d="M-340 -768q-18 28 1 87t54 122t72 118t55 79q16 22 49 66l75 100t89 118t89 117t76 99t50 66q16 18 0 56t-49 89t-74 112t-74 124t-50 125t-1 116q22 16 48 -19t55 -96t61 -134t62 -132t59 -93t55 -14q52 38 102 97t96 123t87 125t77 107q14 18 27 25t41 -3q22 -8 -8 -70 t-94 -160t-153 -223t-188 -260t-198 -269t-182 -249t-142 -202t-77 -127q-8 -18 -17 -36t-25 -30q-4 2 -11 8t-14 13l-14 14t-9 11zM321 841q3 29 30 75t68 90t91 74t98 28q12 -60 -1 -88t-40 -47t-63 -42t-66 -71q-66 -48 -93 -48t-24 29z" />
<glyph unicode="&#xfe;" horiz-adv-x="1084" d="M-94 -752q10 176 51 375t98 411t123 432t125 436t102 425t57 399q34 4 63 1t47 -25t23 -69t-9 -129t-49 -203t-97 -293q164 56 277 62t184 -25t102 -93t29 -140t-35 -166t-89 -173t-132 -158t-166 -123t-191 -68t-205 8q-54 -154 -80 -259t-38 -179t-14 -127t-6 -101 t-15 -100t-41 -126q-4 -8 -21 -14t-37 -7t-37 6t-19 23zM284 226q90 -32 191 5t193 114t163 179t102 198t12 172t-109 102q-138 -14 -225 -52t-139 -96t-78 -130t-41 -153t-29 -168t-40 -171z" />
<glyph unicode="&#xff;" horiz-adv-x="882" d="M-340 -768q-18 28 1 87t54 122t72 118t55 79q16 22 49 66l75 100t89 118t89 117t76 99t50 66q16 18 0 56t-49 89t-74 112t-74 124t-50 125t-1 116q22 16 48 -19t55 -96t61 -134t62 -132t59 -93t55 -14q52 38 102 97t96 123t87 125t77 107q14 18 27 25t41 -3q22 -8 -8 -70 t-94 -160t-153 -223t-188 -260t-198 -269t-182 -249t-142 -202t-77 -127q-8 -18 -17 -36t-25 -30q-4 2 -11 8t-14 13l-14 14t-9 11zM225 936q13 42 45 65t70 18t60 -55q12 -30 -4 -63t-44 -54t-60 -23t-52 28q-28 42 -15 84zM512 946q14 42 46 65t70 18t58 -55 q12 -30 -4 -63t-44 -54t-59 -23t-51 28q-30 42 -16 84z" />
<glyph unicode="&#x152;" horiz-adv-x="2300" d="M40 301q10 87 49 175t81 156q14 24 52 82t81 123t82 122t55 79q24 154 96 245t163 125t187 15t168 -86t104 -179t-5 -262t-157 -336t-352 -402q-40 -38 -95 -73t-116 -57t-123 -26t-116 20q-100 42 -132 117t-22 162zM124 180q20 -90 76 -112t132 8t166 102t180 169 t172 211t143 226t93 214t21 177t-72 113t-187 22q-46 -40 -122 -117t-162 -175t-172 -211t-152 -225t-100 -216t-16 -186zM840 30q-12 10 6 22q20 72 41 138t45 131t51 132t57 141q10 18 -3 37t-30 38t-24 40t15 43q2 2 15 6t29 7t29 6t17 5q6 4 23 21t21 23q32 54 61 96 t54 84t45 88t36 108q6 24 -11 31t-39 13t-36 19t-2 49q8 22 77 48t175 50t238 44t264 32t252 15t204 -8t120 -38t-2 -75q-18 -4 -37 -1t-39 9t-42 11t-42 3q-96 -8 -188 -6t-184 2t-184 -7t-184 -33q-64 -18 -114 -63t-95 -114t-90 -159t-101 -198q22 -6 83 8t140 35t167 42 t165 30t135 0t78 -47q2 -4 2 -12t-2 -10q-106 -16 -219 -29t-224 -33t-217 -53t-200 -89q-76 -134 -136 -276t-106 -288q58 20 135 39t148 35t124 26t63 12q170 26 327 41t327 5q14 -4 20 -16t8 -27t0 -29t-4 -20q-218 12 -433 -16t-427 -74q-34 -8 -83 -28t-100 -36 t-98 -22t-79 16q-8 4 -14 10t-8 16z" />
<glyph unicode="&#x153;" horiz-adv-x="1588" d="M53 124q-21 68 1 151t76 172t120 163t133 125t115 57q124 16 195 -17t97 -95t14 -145t-53 -167t-106 -162t-144 -131t-167 -70t-176 17q-84 34 -105 102zM136 136q16 -64 68 -71t121 26t145 96t139 137t104 149t40 131t-54 85t-177 11q-28 -26 -72 -63t-91 -81t-93 -95 t-80 -105t-49 -110t-1 -110zM647 279q7 55 23 105q60 64 135 147t159 163t175 149t185 105q32 14 51 -1t27 -47t7 -74t-7 -82t-16 -72t-20 -44q-24 -28 -93 -66t-153 -83t-168 -93t-138 -95t-64 -93t56 -84q68 -8 165 7t198 40t195 52t154 43l24 -22q-44 -58 -144 -106 t-216 -79t-226 -40t-174 13q-60 20 -91 61t-41 91t-3 105zM900 504q32 -6 83 9t106 43t105 63t79 69t30 60t-43 38q-2 2 -30 -17t-69 -50t-88 -68t-86 -69t-65 -55t-22 -23z" />
<glyph unicode="&#x178;" horiz-adv-x="804" d="M70 1351q6 15 42 -3q28 -26 70 -83t87 -128t92 -146t87 -134t70 -94t44 -25q20 40 59 127t85 190t95 206t92 175t76 97t45 -27q8 -30 -18 -105t-74 -180t-113 -234t-136 -267t-142 -277t-133 -266t-108 -233t-66 -178q-6 -20 -19 -39t-29 -27t-33 1t-31 43q-24 60 -6 126 t58 139t94 151t102 161t80 171t32 178q-8 18 -36 61t-66 100l-82 123t-85 129t-74 120t-49 95t-10 53zM283 1486q13 42 45 65t70 18t60 -55q12 -30 -4 -63t-44 -54t-60 -23t-52 28q-28 42 -15 84zM570 1496q14 42 46 65t70 18t58 -55q12 -30 -4 -63t-44 -54t-59 -23t-51 28 q-30 42 -16 84z" />
<glyph unicode="&#x2c6;" horiz-adv-x="844" d="M134 994q10 18 36 39t54 42t53 42t35 39q44 94 81 129t66 29t50 -44t33 -87t17 -100t0 -85t-19 -41t-36 31q-4 6 -15 37t-25 64t-29 53t-29 6q-8 -12 -33 -54t-61 -82t-76 -63t-78 1q-10 6 -21 17t-3 27z" />
<glyph unicode="&#x2dc;" horiz-adv-x="1364" d="M170 837q6 33 29 79t57 90t77 77t88 41t90 -18t83 -100q18 -86 51 -118t76 -29t93 32t104 67t110 77t108 61q12 -20 -12 -57t-69 -80t-104 -85t-121 -71t-119 -38t-95 15q-58 10 -87 47t-46 78t-29 73t-35 32t-67 -46t-122 -160q-40 -24 -53 -12t-7 45z" />
<glyph unicode="&#x2000;" horiz-adv-x="959" />
<glyph unicode="&#x2001;" horiz-adv-x="1918" />
<glyph unicode="&#x2002;" horiz-adv-x="959" />
<glyph unicode="&#x2003;" horiz-adv-x="1918" />
<glyph unicode="&#x2004;" horiz-adv-x="639" />
<glyph unicode="&#x2005;" horiz-adv-x="479" />
<glyph unicode="&#x2006;" horiz-adv-x="319" />
<glyph unicode="&#x2007;" horiz-adv-x="319" />
<glyph unicode="&#x2008;" horiz-adv-x="239" />
<glyph unicode="&#x2009;" horiz-adv-x="383" />
<glyph unicode="&#x200a;" horiz-adv-x="106" />
<glyph unicode="&#x2010;" horiz-adv-x="996" d="M58 564q-26 26 3 50t92 44t151 34t182 22t183 7t156 -13t100 -36t15 -62q-22 0 -73 -3t-109 -7t-110 -7t-72 -5q-50 -4 -122 -23t-147 -32t-143 -11t-106 42z" />
<glyph unicode="&#x2011;" horiz-adv-x="996" d="M58 564q-26 26 3 50t92 44t151 34t182 22t183 7t156 -13t100 -36t15 -62q-22 0 -73 -3t-109 -7t-110 -7t-72 -5q-50 -4 -122 -23t-147 -32t-143 -11t-106 42z" />
<glyph unicode="&#x2012;" horiz-adv-x="996" d="M58 564q-26 26 3 50t92 44t151 34t182 22t183 7t156 -13t100 -36t15 -62q-22 0 -73 -3t-109 -7t-110 -7t-72 -5q-50 -4 -122 -23t-147 -32t-143 -11t-106 42z" />
<glyph unicode="&#x2013;" horiz-adv-x="1012" d="M48 430q2 8 66 22t160 28t208 24t209 13t166 -6t77 -35q4 -4 4 -22t-4 -24q-56 -4 -152 -10t-201 -12t-201 -12t-152 -10q-50 -4 -82 -2t-76 24q-4 2 -12 10t-10 12z" />
<glyph unicode="&#x2014;" horiz-adv-x="1364" d="M64 438q2 6 52 17t131 23t184 24t211 21t212 15t188 5t137 -9t59 -28q4 -4 4 -22t-4 -24q-36 -2 -114 -7t-176 -12t-206 -14t-206 -14t-176 -12t-116 -7q-48 -4 -81 -2t-77 24q-4 2 -12 10t-10 12z" />
<glyph unicode="&#x2018;" horiz-adv-x="338" d="M86 892q0 26 1 48t3 32q0 2 5 20t13 39t15 43t11 34q22 60 38 73t25 -4t11 -57t-2 -89t-13 -98t-24 -84t-35 -47t-44 12q-2 8 -3 30t-1 48z" />
<glyph unicode="&#x2019;" horiz-adv-x="360" d="M116 892q0 26 1 48t1 32q0 2 5 20t12 39t15 43t12 34q30 80 48 80t24 -44t1 -113t-20 -128t-39 -91t-58 2q0 8 -1 30t-1 48z" />
<glyph unicode="&#x201a;" horiz-adv-x="250" d="M69 -29q1 35 7 68t16 68t26 81q22 60 37 73t24 -4t12 -58t-1 -90t-13 -98t-24 -84t-35 -47t-44 12q-6 44 -5 79z" />
<glyph unicode="&#x201c;" horiz-adv-x="548" d="M94 1107q0 43 2 71q0 34 14 25t32 -33t32 -52t14 -30q2 -26 2 -67v-81v-69t-2 -31l-24 -22q-8 2 -24 19t-20 25q-10 28 -15 70t-8 87t-3 88zM324 862v340q38 18 59 -2t29 -61t6 -97t-10 -107t-19 -90t-21 -49q-4 0 -12 9t-10 13q-4 8 -13 25t-9 19z" />
<glyph unicode="&#x201d;" horiz-adv-x="554" d="M114 1107q0 43 2 71q0 34 14 25t31 -33t31 -52t14 -30q2 -26 3 -67t1 -81t-1 -69t-3 -31l-22 -22q-8 2 -25 19t-19 25q-10 28 -15 70t-8 87t-3 88zM342 862v340q38 18 59 -2t30 -61t6 -97t-10 -107t-18 -90t-21 -49q-4 0 -13 9t-11 13q-4 8 -13 25t-9 19z" />
<glyph unicode="&#x201e;" horiz-adv-x="440" d="M66 97q0 43 2 71q0 34 14 26t31 -33t31 -53t14 -30q2 -26 3 -67t1 -80t-1 -68t-3 -31l-22 -24q-8 4 -25 21t-19 23q-10 28 -15 70t-8 87t-3 88zM294 -148v340q38 20 60 -1t30 -62t6 -97t-10 -107t-19 -90t-21 -49q-4 2 -12 10t-10 12q-4 8 -14 25t-10 19z" />
<glyph unicode="&#x2022;" horiz-adv-x="644" d="M153 578q1 54 26 99t69 76t91 37t91 -18t70 -88q24 -58 -7 -119t-86 -100t-117 -44t-100 49t-37 108z" />
<glyph unicode="&#x2026;" horiz-adv-x="880" d="M53 107q13 43 45 66t70 18t58 -55q12 -30 -3 -63t-43 -54t-60 -24t-52 27q-28 42 -15 85zM346 107q14 43 46 66t70 18t58 -55q12 -30 -4 -63t-44 -54t-59 -24t-51 27q-30 42 -16 85zM639 107q13 43 45 66t70 18t58 -55q12 -30 -4 -63t-43 -54t-58 -24t-51 27 q-30 42 -17 85z" />
<glyph unicode="&#x202f;" horiz-adv-x="383" />
<glyph unicode="&#x2039;" horiz-adv-x="928" d="M25 655q3 33 43 69q18 16 55 49t84 76t99 89t98 89t83 76t55 49q10 4 28 0t33 -13t20 -23t-11 -32l-430 -428q-22 -22 4 -58t68 -72t83 -64t49 -34q26 -18 93 -63t143 -95t143 -95t95 -61q20 -26 24 -51t-7 -41t-33 -18t-52 18q-162 108 -326 215t-308 239q-32 28 -65 57 t-52 59t-16 63z" />
<glyph unicode="&#x203a;" horiz-adv-x="690" d="M56 1108q2 8 19 25t25 19q42 -32 109 -75t137 -92t134 -104t102 -114t41 -122t-49 -125q-16 -20 -46 -57t-67 -81t-76 -90t-74 -87t-61 -72t-36 -43q-4 -6 -17 -19l-27 -27l-27 -27t-19 -17q-6 4 -24 21t-22 25q-20 38 8 86t80 102t116 112t118 115t87 112t21 105 q-2 4 -38 33t-87 71t-111 91t-109 95t-80 84t-27 56z" />
<glyph unicode="&#x205f;" horiz-adv-x="479" />
<glyph unicode="&#x20ac;" horiz-adv-x="1416" d="M42 580q-12 18 15 33t76 28t109 22t114 16t92 10t44 3q18 0 60 1t88 1t88 -1t60 -1q10 -6 19 -18t3 -28q-74 -10 -171 -25t-193 -32t-181 -32t-133 -23q-36 -6 -52 3t-38 43zM154 1030q12 24 57 44t107 33t133 17t135 -2t112 -23t66 -47q-8 -8 -54 -18t-111 -19t-140 -15 t-140 -5t-111 9t-54 26zM169 380q13 122 74 263t149 284t192 280t204 250t186 194t138 113q96 58 167 49t118 -54t72 -110t32 -121t-3 -88t-34 -8q-4 24 -24 65t-48 83t-61 75t-61 39q-58 14 -134 -25t-161 -115t-174 -183t-172 -228t-156 -251t-125 -251t-79 -228t-18 -183 t58 -115t149 -25q112 16 211 39t192 52t184 64t191 75q36 14 57 -10t11 -58q-12 -34 -72 -70t-148 -68t-193 -58t-206 -40t-187 -14t-134 20q-122 48 -165 142t-30 216z" />
<glyph unicode="&#x2122;" horiz-adv-x="3142" d="M36 1018q14 26 87 53t183 52t248 48t279 41t276 32t241 20t172 5t70 -11q4 -8 9 -30t11 -46q32 16 62 40t66 46q72 44 114 38t61 -44t20 -103t-10 -141t-28 -155t-33 -146t-27 -114t-9 -59q18 -8 28 2t18 20q6 10 29 38t53 65t64 79t65 79t53 65t30 38l38 38l66 66t71 70 t53 52q154 144 256 219t163 96t86 -6t24 -89t-22 -151t-53 -191t-70 -211t-70 -211q-10 -28 -30 -92t-42 -136t-42 -137l-28 -91q0 -4 -10 -51t-29 -101t-49 -94t-70 -26q-4 2 -13 10t-9 14q-2 0 -2 10t2 14q0 4 7 24t14 42t14 42t9 26q58 186 109 329t98 279t92 281t93 335 q2 6 2 23t-2 21q-58 20 -130 -16t-151 -108t-162 -171t-163 -207t-155 -213t-137 -190t-111 -140t-75 -61q-16 -4 -43 5t-27 19v136q6 22 17 70t24 108t28 126t28 126t24 107t15 71q10 46 20 90t2 92q-86 -32 -165 -100t-150 -158t-135 -194t-120 -205t-102 -192t-84 -156 t-65 -96t-43 -11q-34 10 -23 70t49 150t96 199t122 219t124 211t104 173q-48 6 -90 17t-86 19t-96 9t-122 -13q-62 -12 -119 -69t-111 -141t-103 -186t-92 -206t-81 -201t-69 -170t-55 -114t-40 -33l-12 12l-10 10q-12 50 1 115t37 131t52 127t46 101q10 24 31 70t48 104 t56 122t56 122t48 103t31 67q-34 6 -97 -6t-139 -31l-156 -39t-149 -29t-118 -2t-61 41z" />
<glyph unicode="&#x25fc;" horiz-adv-x="830" d="M0 0v830h830v-830h-830z" />
<glyph unicode="&#xfb01;" horiz-adv-x="1076" d="M34 525q-2 11 2 17q6 2 22 8t34 14t34 14t22 10q6 2 33 12t58 21t57 21t32 14q24 16 57 79t75 151t92 189t108 194t122 166t133 104t143 9t152 -118q14 -20 20 -43t2 -47q-18 -10 -36 -4t-33 20t-27 29t-16 23q-134 22 -213 -11t-130 -100t-89 -159t-88 -190 q-14 -24 -33 -62l-37 -74l-31 -62l-13 -26v-24q0 -8 50 -12t113 -12t122 -23t77 -43l-22 -22q-114 6 -192 4t-136 -26t-102 -77t-90 -149q-16 -34 -42 -87t-52 -104t-44 -88t-20 -39l-24 -22q-6 4 -23 21t-21 25q-4 4 -4 22t4 22l168 386h-190q-6 0 -11 8t-8 19t-5 22z M562 -44q82 264 149 419t112 217t61 40t-3 -112t-80 -241t-171 -345q-16 -6 -38 -2t-30 24zM908 954q0 26 4 32q46 16 70 4t30 -35t-1 -49t-23 -39t-37 -4t-39 55q-4 10 -4 36z" />
<glyph unicode="&#xfb02;" horiz-adv-x="1298" d="M34 525q-2 11 2 17q6 2 22 8t34 14t34 14t22 10q6 2 33 12t58 21t57 21t32 14q24 16 57 79t75 151t92 189t108 194t122 166t133 104t143 9t152 -118q14 -20 20 -43t2 -47q-18 -10 -36 -4t-33 20t-27 29t-16 23q-134 22 -213 -11t-130 -100t-89 -159t-88 -190 q-14 -24 -33 -62l-37 -74l-31 -62l-13 -26v-24q0 -8 50 -12t113 -12t122 -23t77 -43l-22 -22q-114 6 -192 4t-136 -26t-102 -77t-90 -149q-16 -34 -42 -87t-52 -104t-44 -88t-20 -39l-24 -22q-6 4 -23 21t-21 25q-4 4 -4 22t4 22l168 386h-190q-6 0 -11 8t-8 19t-5 22z M708 261q12 75 43 155t68 154t72 136t55 102l29 58t49 100t49 101t29 59q6 10 17 39t25 63t31 65t36 45t38 4t37 -60q-8 -20 -39 -80t-73 -144l-93 -186t-99 -206t-90 -203t-69 -180t-32 -134t19 -65q28 -14 73 -11t93 11t94 17t80 7q8 -18 -12 -35t-56 -30t-83 -22t-90 -13 t-76 -2t-45 10q-58 42 -75 106t-5 139z" />
</font>
</defs>
</svg>
